<?xml version="1.0" encoding="UTF-8"?>
<svg version="1.1" xmlns="http://www.w3.org/2000/svg" width="504" height="495">
<path d="M0 0 C166.32 0 332.64 0 504 0 C504 163.35 504 326.7 504 495 C337.68 495 171.36 495 0 495 C0 331.65 0 168.3 0 0 Z " fill="#E3E5FE" transform="translate(0,0)"/>
<path d="M0 0 C166.32 0 332.64 0 504 0 C504 163.35 504 326.7 504 495 C337.68 495 171.36 495 0 495 C0 331.65 0 168.3 0 0 Z M221 18 C218.98405418 18.23427778 216.961526 18.41336124 214.9375 18.5625 C213.83277344 18.64628906 212.72804687 18.73007812 211.58984375 18.81640625 C210.30787109 18.90728516 210.30787109 18.90728516 209 19 C209 19.66 209 20.32 209 21 C206.36 21 203.72 21 201 21 C201 21.66 201 22.32 201 23 C200.21625 22.95875 199.4325 22.9175 198.625 22.875 C193.9473956 23.0362967 189.55916568 23.99085661 185 25 C185 25.66 185 26.32 185 27 C183.68 27 182.36 27 181 27 C181 27.66 181 28.32 181 29 C179.02 29 177.04 29 175 29 C175 29.66 175 30.32 175 31 C173.02 31 171.04 31 169 31 C169 31.66 169 32.32 169 33 C167.68 33 166.36 33 165 33 C165 33.66 165 34.32 165 35 C163.02 35 161.04 35 159 35 C159 35.66 159 36.32 159 37 C157.68 37 156.36 37 155 37 C155 37.66 155 38.32 155 39 C153.68 39 152.36 39 151 39 C151 39.66 151 40.32 151 41 C149.68 41 148.36 41 147 41 C147 41.66 147 42.32 147 43 C145.68 43 144.36 43 143 43 C143 43.99 143 44.98 143 46 C142.236875 46.20625 141.47375 46.4125 140.6875 46.625 C135.50101406 48.55894391 130.80966916 51.2785146 126 54 C126 54.66 126 55.32 126 56 C125.05125 56.2475 124.1025 56.495 123.125 56.75 C119.91306809 57.6857077 119.91306809 57.6857077 118.625 60.125 C118.41875 60.74375 118.2125 61.3625 118 62 C117.34 62 116.68 62 116 62 C116 62.66 116 63.32 116 64 C114.68 64 113.36 64 112 64 C112 64.66 112 65.32 112 66 C111.34 66 110.68 66 110 66 C110 66.66 110 67.32 110 68 C109.34 68 108.68 68 108 68 C108 68.66 108 69.32 108 70 C107.34 70 106.68 70 106 70 C106 70.66 106 71.32 106 72 C105.34 72 104.68 72 104 72 C104 72.66 104 73.32 104 74 C102.68 74 101.36 74 100 74 C100 75.32 100 76.64 100 78 C98.68 78 97.36 78 96 78 C96 78.66 96 79.32 96 80 C95.34 80 94.68 80 94 80 C94 80.66 94 81.32 94 82 C93.34 82 92.68 82 92 82 C92 82.66 92 83.32 92 84 C91.34 84 90.68 84 90 84 C90 84.66 90 85.32 90 86 C89.34 86 88.68 86 88 86 C88 86.66 88 87.32 88 88 C87.34 88 86.68 88 86 88 C86 88.66 86 89.32 86 90 C85.34 90 84.68 90 84 90 C84 90.66 84 91.32 84 92 C83.34 92 82.68 92 82 92 C82 92.66 82 93.32 82 94 C81.34 94 80.68 94 80 94 C80 95.32 80 96.64 80 98 C79.34 98 78.68 98 78 98 C78 98.66 78 99.32 78 100 C77.34 100 76.68 100 76 100 C76 100.66 76 101.32 76 102 C75.34 102 74.68 102 74 102 C74 102.66 74 103.32 74 104 C73.34 104 72.68 104 72 104 C72 105.32 72 106.64 72 108 C71.34 108 70.68 108 70 108 C70 108.66 70 109.32 70 110 C69.34 110 68.68 110 68 110 C68 110.66 68 111.32 68 112 C67.34 112 66.68 112 66 112 C66 113.32 66 114.64 66 116 C65.34 116 64.68 116 64 116 C64 116.66 64 117.32 64 118 C63.34 118 62.68 118 62 118 C62 119.32 62 120.64 62 122 C61.34 122 60.68 122 60 122 C60 122.66 60 123.32 60 124 C59.34 124 58.68 124 58 124 C58 125.32 58 126.64 58 128 C57.34 128 56.68 128 56 128 C56 129.32 56 130.64 56 132 C55.34 132 54.68 132 54 132 C54 132.66 54 133.32 54 134 C53.34 134 52.68 134 52 134 C52 135.32 52 136.64 52 138 C51.34 138 50.68 138 50 138 C50 139.32 50 140.64 50 142 C49.34 142 48.68 142 48 142 C47.34 144.97 46.68 147.94 46 151 C45.34 151 44.68 151 44 151 C44 152.32 44 153.64 44 155 C43.34 155 42.68 155 42 155 C42 156.65 42 158.3 42 160 C41.34 160 40.68 160 40 160 C40 161.65 40 163.3 40 165 C39.34 165 38.68 165 38 165 C38 166.98 38 168.96 38 171 C37.34 171 36.68 171 36 171 C36 172.98 36 174.96 36 177 C35.34 177 34.68 177 34 177 C33.855625 178.134375 33.71125 179.26875 33.5625 180.4375 C33 184 33 184 32 185 C31.92851801 186.35243917 31.91600546 187.70834367 31.9375 189.0625 C31.958125 190.361875 31.97875 191.66125 32 193 C31.34 193 30.68 193 30 193 C28.32900701 198.79277572 27.65574913 204.24404187 27.34375 210.265625 C27 213 27 213 26.01708984 214.83032227 C22.42545018 222.49208456 23.84470649 233.50702994 23.875 241.8125 C23.87113281 242.89208984 23.86726563 243.97167969 23.86328125 245.08398438 C23.86993154 250.5072947 24.15503754 255.63385779 25 261 C25.28629092 264.94722509 25.43735661 268.90172033 25.60546875 272.85546875 C25.42126212 276.74545092 25.42126212 276.74545092 27 280 C27.23427778 282.01594582 27.41336124 284.038474 27.5625 286.0625 C27.64628906 287.16722656 27.73007812 288.27195312 27.81640625 289.41015625 C27.87699219 290.26480469 27.93757813 291.11945313 28 292 C28.66 292 29.32 292 30 292 C30 294.64 30 297.28 30 300 C30.66 300 31.32 300 32 300 C32 303.3 32 306.6 32 310 C32.66 310 33.32 310 34 310 C34 311.98 34 313.96 34 316 C34.66 316 35.32 316 36 316 C36 317.98 36 319.96 36 322 C36.66 322 37.32 322 38 322 C38 323.32 38 324.64 38 326 C38.66 326 39.32 326 40 326 C40 327.98 40 329.96 40 332 C40.66 332 41.32 332 42 332 C42 333.32 42 334.64 42 336 C42.66 336 43.32 336 44 336 C43.95875 336.9075 43.9175 337.815 43.875 338.75 C43.99531556 341.8782046 44.3914708 343.38614006 46 346 C46.66 346 47.32 346 48 346 C48 347.32 48 348.64 48 350 C48.66 350 49.32 350 50 350 C50 351.32 50 352.64 50 354 C50.66 354 51.32 354 52 354 C52 354.99 52 355.98 52 357 C52.66 357 53.32 357 54 357 C54.2165625 358.1446875 54.2165625 358.1446875 54.4375 359.3125 C54.9632594 362.08172908 54.9632594 362.08172908 56 365 C56.66 365 57.32 365 58 365 C58 365.66 58 366.32 58 367 C58.66 367 59.32 367 60 367 C60 368.32 60 369.64 60 371 C60.66 371 61.32 371 62 371 C62 371.99 62 372.98 62 374 C62.66 374 63.32 374 64 374 C64 374.99 64 375.98 64 377 C64.66 377 65.32 377 66 377 C66 378.32 66 379.64 66 381 C66.66 381 67.32 381 68 381 C68 381.66 68 382.32 68 383 C68.66 383 69.32 383 70 383 C70 383.66 70 384.32 70 385 C70.66 385 71.32 385 72 385 C72 386.32 72 387.64 72 389 C72.66 389 73.32 389 74 389 C74 389.66 74 390.32 74 391 C74.66 391 75.32 391 76 391 C76 391.66 76 392.32 76 393 C76.66 393 77.32 393 78 393 C78 393.66 78 394.32 78 395 C78.66 395 79.32 395 80 395 C80 395.66 80 396.32 80 397 C80.66 397 81.32 397 82 397 C82 398.32 82 399.64 82 401 C82.66 401 83.32 401 84 401 C84 401.66 84 402.32 84 403 C84.66 403 85.32 403 86 403 C86 403.66 86 404.32 86 405 C86.66 405 87.32 405 88 405 C88 405.66 88 406.32 88 407 C88.66 407 89.32 407 90 407 C90 407.66 90 408.32 90 409 C90.66 409 91.32 409 92 409 C92 409.66 92 410.32 92 411 C92.66 411 93.32 411 94 411 C94 411.66 94 412.32 94 413 C94.66 413 95.32 413 96 413 C96 413.66 96 414.32 96 415 C96.66 415 97.32 415 98 415 C98 415.66 98 416.32 98 417 C98.66 417 99.32 417 100 417 C100 417.66 100 418.32 100 419 C100.66 419 101.32 419 102 419 C102 419.66 102 420.32 102 421 C103.32 421 104.64 421 106 421 C106 421.66 106 422.32 106 423 C106.66 423 107.32 423 108 423 C108 423.66 108 424.32 108 425 C108.99 425 109.98 425 111 425 C111.33 426.32 111.66 427.64 112 429 C113.32 429 114.64 429 116 429 C116 429.66 116 430.32 116 431 C116.66 431 117.32 431 118 431 C118 431.66 118 432.32 118 433 C118.66 433 119.32 433 120 433 C120 433.66 120 434.32 120 435 C121.32 435 122.64 435 124 435 C124 435.66 124 436.32 124 437 C124.66 437 125.32 437 126 437 C126 437.66 126 438.32 126 439 C127.32 439 128.64 439 130 439 C130 439.66 130 440.32 130 441 C130.99 441 131.98 441 133 441 C133 441.66 133 442.32 133 443 C133.99 443 134.98 443 136 443 C136 443.66 136 444.32 136 445 C138.64738916 446.4606285 139.89448334 447 143 447 C143 447.66 143 448.32 143 449 C144.32 449 145.64 449 147 449 C147 449.66 147 450.32 147 451 C148.32 451 149.64 451 151 451 C151 451.66 151 452.32 151 453 C153.24525946 454.17666004 155.49544142 455.3414074 157.75 456.5 C158.70132813 457.00080078 158.70132813 457.00080078 159.671875 457.51171875 C163.12010993 459.27175533 165.04840069 460 169 460 C169 460.66 169 461.32 169 462 C173.01780383 463.32190013 177.039722 464.63082308 181.0625 465.9375 C182.7630957 466.49727539 182.7630957 466.49727539 184.49804688 467.06835938 C190.02367347 468.85653591 195.23044933 470.35348297 201 471 C201.33 471.33 201.66 471.66 202 472 C203.38632475 472.28323362 204.78360171 472.51347002 206.18359375 472.71875 C207.02857422 472.84636719 207.87355469 472.97398437 208.74414062 473.10546875 C210.07735352 473.30076172 210.07735352 473.30076172 211.4375 473.5 C213.18665321 473.75734082 214.93537746 474.01761952 216.68359375 474.28125 C217.85233032 474.45237305 217.85233032 474.45237305 219.04467773 474.62695312 C221 475 221 475 223 476 C224.46594451 476.15226125 225.93785892 476.24919492 227.41015625 476.31640625 C228.30847168 476.35854248 229.20678711 476.40067871 230.13232422 476.4440918 C231.58276123 476.50270386 231.58276123 476.50270386 233.0625 476.5625 C234.06039551 476.6035083 235.05829102 476.6445166 236.08642578 476.68676758 C239.05736501 476.8016198 242.0283791 476.90452211 245 477 C245.76393066 477.02481445 246.52786133 477.04962891 247.31494141 477.07519531 C260.27530343 477.43427555 273.11452612 476.30058547 286 475 C287.06226807 474.89582764 287.06226807 474.89582764 288.14599609 474.78955078 C297.04821911 473.8739335 305.41520558 471.64275291 313.96875 469.12109375 C317.28693797 468.15797563 320.57377025 467.48249121 324 467 C324 466.34 324 465.68 324 465 C327.3 464.67 330.6 464.34 334 464 C334 463.34 334 462.68 334 462 C334.60585938 461.91363281 335.21171875 461.82726562 335.8359375 461.73828125 C342.59027664 460.60563053 348.0344565 458.32547318 354 455 C354 454.34 354 453.68 354 453 C355.32 453 356.64 453 358 453 C358 452.34 358 451.68 358 451 C359.32 451 360.64 451 362 451 C362 450.34 362 449.68 362 449 C363.32 449 364.64 449 366 449 C366 448.34 366 447.68 366 447 C366.9075 446.71125 367.815 446.4225 368.75 446.125 C371.32202908 445.23468224 373.61346766 444.28505587 376 443 C376 442.34 376 441.68 376 441 C376.61875 440.855625 377.2375 440.71125 377.875 440.5625 C380.03258322 440.06847775 380.03258322 440.06847775 382 439 C382 438.34 382 437.68 382 437 C382.61875 436.855625 383.2375 436.71125 383.875 436.5625 C386.03258322 436.06847775 386.03258322 436.06847775 388 435 C388 434.34 388 433.68 388 433 C388.99 433 389.98 433 391 433 C391 432.34 391 431.68 391 431 C391.66 431 392.32 431 393 431 C393 430.34 393 429.68 393 429 C394.32 429 395.64 429 397 429 C397 428.34 397 427.68 397 427 C397.66 427 398.32 427 399 427 C399 426.34 399 425.68 399 425 C399.66 425 400.32 425 401 425 C401 424.34 401 423.68 401 423 C401.66 423 402.32 423 403 423 C403 422.34 403 421.68 403 421 C403.66 421 404.32 421 405 421 C405 420.34 405 419.68 405 419 C406.98 418.34 408.96 417.68 411 417 C411 416.34 411 415.68 411 415 C411.66 415 412.32 415 413 415 C413 414.34 413 413.68 413 413 C413.66 413 414.32 413 415 413 C415 412.34 415 411.68 415 411 C415.66 411 416.32 411 417 411 C417 410.34 417 409.68 417 409 C417.66 409 418.32 409 419 409 C419 408.34 419 407.68 419 407 C419.66 407 420.32 407 421 407 C421.66 405.02 422.32 403.04 423 401 C423.66 401 424.32 401 425 401 C425 400.34 425 399.68 425 399 C425.66 399 426.32 399 427 399 C427 398.34 427 397.68 427 397 C427.66 397 428.32 397 429 397 C429 396.34 429 395.68 429 395 C429.66 395 430.32 395 431 395 C431 394.34 431 393.68 431 393 C431.66 393 432.32 393 433 393 C433 392.34 433 391.68 433 391 C433.66 391 434.32 391 435 391 C435 390.34 435 389.68 435 389 C435.66 389 436.32 389 437 389 C437 387.68 437 386.36 437 385 C437.66 385 438.32 385 439 385 C439 384.34 439 383.68 439 383 C439.66 383 440.32 383 441 383 C441.66 381.02 442.32 379.04 443 377 C443.66 377 444.32 377 445 377 C445 375.68 445 374.36 445 373 C445.66 373 446.32 373 447 373 C447 372.34 447 371.68 447 371 C447.66 371 448.32 371 449 371 C449 370.34 449 369.68 449 369 C449.66 369 450.32 369 451 369 C451 367.68 451 366.36 451 365 C451.66 365 452.32 365 453 365 C454.76462683 361.91190305 455 360.76687864 455 357 C455.66 357 456.32 357 457 357 C457 356.01 457 355.02 457 354 C457.66 354 458.32 354 459 354 C459 352.68 459 351.36 459 350 C459.66 350 460.32 350 461 350 C462.76462683 346.91190305 463 345.76687864 463 342 C463.66 342 464.32 342 465 342 C465 340.02 465 338.04 465 336 C465.66 336 466.32 336 467 336 C467 334.68 467 333.36 467 332 C467.66 332 468.32 332 469 332 C469 330.02 469 328.04 469 326 C469.66 326 470.32 326 471 326 C471 324.02 471 322.04 471 320 C471.66 320 472.32 320 473 320 C473 318.68 473 317.36 473 316 C473.66 316 474.32 316 475 316 C475 313.36 475 310.72 475 308 C475.66 308 476.32 308 477 308 C477 305.36 477 302.72 477 300 C477.66 300 478.32 300 479 300 C481.50755771 289.26998561 483.44206349 278.95759637 483.82421875 267.9296875 C484 265 484 265 485 264 C485.10087212 261.49075847 485.13972032 259.00963616 485.1328125 256.5 C485.13376923 255.74912109 485.13472595 254.99824219 485.13571167 254.22460938 C485.13639338 252.63411373 485.13453972 251.04361533 485.13037109 249.453125 C485.12502267 247.01035345 485.13031634 244.56776579 485.13671875 242.125 C485.13605797 240.58333293 485.1347768 239.04166597 485.1328125 237.5 C485.13584885 236.39688477 485.13584885 236.39688477 485.13894653 235.27148438 C485.43056513 231.84753658 485.43056513 231.84753658 484 229 C483.78871644 226.35015201 483.62387334 223.71660103 483.5 221.0625 C483.45708764 215.87297382 483.45708764 215.87297382 482 211 C481.84503604 209.48192714 481.725082 207.96017614 481.625 206.4375 C481.23000603 202.01611593 480.21424138 198.2705666 478.69921875 194.1171875 C477.70040607 191.09284966 477.33629494 188.16117241 477 185 C476.34 185 475.68 185 475 185 C475 182.36 475 179.72 475 177 C474.34 177 473.68 177 473 177 C473 175.02 473 173.04 473 171 C472.34 171 471.68 171 471 171 C471.04125 170.0925 471.0825 169.185 471.125 168.25 C471.00468444 165.1217954 470.6085292 163.61385994 469 161 C468.34 161 467.68 161 467 161 C467 159.02 467 157.04 467 155 C466.34 155 465.68 155 465 155 C465 153.68 465 152.36 465 151 C464.34 151 463.68 151 463 151 C463 149.35 463 147.7 463 146 C462.34 146 461.68 146 461 146 C461 144.68 461 143.36 461 142 C460.34 142 459.68 142 459 142 C459 140.68 459 139.36 459 138 C458.34 138 457.68 138 457 138 C457 136.68 457 135.36 457 134 C456.34 134 455.68 134 455 134 C455 133.34 455 132.68 455 132 C454.34 132 453.68 132 453 132 C453 130.68 453 129.36 453 128 C452.34 128 451.68 128 451 128 C451 126.68 451 125.36 451 124 C450.34 124 449.68 124 449 124 C449 123.34 449 122.68 449 122 C448.34 122 447.68 122 447 122 C447 120.68 447 119.36 447 118 C446.34 118 445.68 118 445 118 C445 117.34 445 116.68 445 116 C444.34 116 443.68 116 443 116 C443 114.68 443 113.36 443 112 C442.34 112 441.68 112 441 112 C441 111.34 441 110.68 441 110 C440.34 110 439.68 110 439 110 C439 109.34 439 108.68 439 108 C438.34 108 437.68 108 437 108 C437 106.68 437 105.36 437 104 C436.34 104 435.68 104 435 104 C435 103.34 435 102.68 435 102 C434.34 102 433.68 102 433 102 C433 101.34 433 100.68 433 100 C432.34 100 431.68 100 431 100 C431 99.34 431 98.68 431 98 C430.34 98 429.68 98 429 98 C429 97.34 429 96.68 429 96 C428.34 96 427.68 96 427 96 C427 94.68 427 93.36 427 92 C426.34 92 425.68 92 425 92 C425 91.34 425 90.68 425 90 C424.34 90 423.68 90 423 90 C423 89.34 423 88.68 423 88 C422.34 88 421.68 88 421 88 C421 87.34 421 86.68 421 86 C420.34 86 419.68 86 419 86 C419 85.34 419 84.68 419 84 C418.34 84 417.68 84 417 84 C417 83.34 417 82.68 417 82 C416.34 82 415.68 82 415 82 C415 81.34 415 80.68 415 80 C414.34 80 413.68 80 413 80 C413 79.34 413 78.68 413 78 C412.34 78 411.68 78 411 78 C411 77.34 411 76.68 411 76 C410.34 76 409.68 76 409 76 C409 75.34 409 74.68 409 74 C408.34 74 407.68 74 407 74 C407 73.34 407 72.68 407 72 C405.68 72 404.36 72 403 72 C402.34 70.68 401.68 69.36 401 68 C400.34 68 399.68 68 399 68 C399 67.34 399 66.68 399 66 C396.18490007 63.7226499 396.18490007 63.7226499 393 64 C393 63.34 393 62.68 393 62 C392.34 62 391.68 62 391 62 C391 61.34 391 60.68 391 60 C390.34 60 389.68 60 389 60 C389 59.34 389 58.68 389 58 C387.68 58 386.36 58 385 58 C385 57.34 385 56.68 385 56 C380.93426439 52.80439959 380.93426439 52.80439959 376 52 C376 51.34 376 50.68 376 50 C374.906875 49.360625 373.81375 48.72125 372.6875 48.0625 C372.07261719 47.70285156 371.45773437 47.34320313 370.82421875 46.97265625 C368.86180445 45.86098753 368.86180445 45.86098753 366 45 C366 44.34 366 43.68 366 43 C364.02 43 362.04 43 360 43 C360 42.34 360 41.68 360 41 C359.34 41 358.68 41 358 41 C358 40.34 358 39.68 358 39 C354.7 38.34 351.4 37.68 348 37 C348 36.34 348 35.68 348 35 C344.04 34.01 344.04 34.01 340 33 C340 32.34 340 31.68 340 31 C338.02 31 336.04 31 334 31 C334 30.34 334 29.68 334 29 C330.7 28.34 327.4 27.68 324 27 C324 26.34 324 25.68 324 25 C323.36191406 24.93941406 322.72382813 24.87882812 322.06640625 24.81640625 C321.24011719 24.73261719 320.41382813 24.64882813 319.5625 24.5625 C318.73878906 24.48128906 317.91507812 24.40007813 317.06640625 24.31640625 C315 24 315 24 314 23 C312.00041636 22.95919217 309.99954746 22.95745644 308 23 C308 22.34 308 21.68 308 21 C305.36 21 302.72 21 300 21 C300 20.34 300 19.68 300 19 C296.04 19 292.08 19 288 19 C288 18.34 288 17.68 288 17 C279.4119428 16.97687365 270.82389851 16.95908342 262.23581791 16.94818783 C258.248428 16.94295964 254.26105933 16.93586316 250.27368164 16.92456055 C246.42874886 16.91372939 242.58383655 16.90772268 238.73888969 16.90512276 C237.26881017 16.90326892 235.79873182 16.89964909 234.32866096 16.89426994 C232.27645533 16.88705645 230.22433533 16.88600919 228.17211914 16.88647461 C227.00185684 16.884254 225.83159454 16.88203339 224.62586975 16.87974548 C222.07433058 16.70099687 222.07433058 16.70099687 221 18 Z " fill="#FEFEFE" transform="translate(0,0)"/>
<path d="M0 0 C6.6 0 13.2 0 20 0 C20 0.66 20 1.32 20 2 C21.32 2 22.64 2 24 2 C24 2.66 24 3.32 24 4 C24.66 4 25.32 4 26 4 C26 4.66 26 5.32 26 6 C26.66 6 27.32 6 28 6 C28 6.66 28 7.32 28 8 C28.66 8 29.32 8 30 8 C30 8.66 30 9.32 30 10 C30.66 10 31.32 10 32 10 C32 10.66 32 11.32 32 12 C32.66 12 33.32 12 34 12 C34 13.98 34 15.96 34 18 C34.66 18 35.32 18 36 18 C36 22.95 36 27.9 36 33 C35.34 33 34.68 33 34 33 C34 34.32 34 35.64 34 37 C33.34 37 32.68 37 32 37 C32 38.32 32 39.64 32 41 C31.34 41 30.68 41 30 41 C30 41.66 30 42.32 30 43 C29.34 43 28.68 43 28 43 C28 43.66 28 44.32 28 45 C27.34 45 26.68 45 26 45 C26 45.66 26 46.32 26 47 C24.68 47 23.36 47 22 47 C22 47.66 22 48.32 22 49 C20.68 49 19.36 49 18 49 C18 49.66 18 50.32 18 51 C12.72 51 7.44 51 2 51 C2 50.34 2 49.68 2 49 C0.68 49 -0.64 49 -2 49 C-2 48.34 -2 47.68 -2 47 C-2.66 47 -3.32 47 -4 47 C-4 46.34 -4 45.68 -4 45 C-4.66 45 -5.32 45 -6 45 C-6 44.34 -6 43.68 -6 43 C-6.66 43 -7.32 43 -8 43 C-8 42.34 -8 41.68 -8 41 C-8.66 41 -9.32 41 -10 41 C-10 40.34 -10 39.68 -10 39 C-10.66 39 -11.32 39 -12 39 C-12 37.68 -12 36.36 -12 35 C-12.66 35 -13.32 35 -14 35 C-17.6363593 28.87711833 -16.45258595 20.71821003 -15 14 C-14.34 14 -13.68 14 -13 14 C-12.67 12.68 -12.34 11.36 -12 10 C-11.34 10 -10.68 10 -10 10 C-10 9.34 -10 8.68 -10 8 C-9.34 8 -8.68 8 -8 8 C-8 7.34 -8 6.68 -8 6 C-7.34 6 -6.68 6 -6 6 C-6 5.34 -6 4.68 -6 4 C-5.34 4 -4.68 4 -4 4 C-4 3.34 -4 2.68 -4 2 C-2.68 2 -1.36 2 0 2 C0 1.34 0 0.68 0 0 Z " fill="#3250FC" transform="translate(46,23)"/>
<path d="M0 0 C-0.33 1.32 -0.66 2.64 -1 4 C-0.34 4 0.32 4 1 4 C1 3.34 1 2.68 1 2 C2.32 2 3.64 2 5 2 C5 2.66 5 3.32 5 4 C5.66 4 6.32 4 7 4 C7 4.66 7 5.32 7 6 C7.66 6 8.32 6 9 6 C9 6.66 9 7.32 9 8 C9.66 8 10.32 8 11 8 C11 8.66 11 9.32 11 10 C9.68 10 8.36 10 7 10 C7 10.99 7 11.98 7 13 C6.34 13 5.68 13 5 13 C5 12.01 5 11.02 5 10 C4.34 10 3.68 10 3 10 C3 11.32 3 12.64 3 14 C2.34 14 1.68 14 1 14 C1 13.34 1 12.68 1 12 C-0.65 12.33 -2.3 12.66 -4 13 C-3.505 14.485 -3.505 14.485 -3 16 C-5.97 15.34 -8.94 14.68 -12 14 C-11.98839844 14.84304688 -11.97679687 15.68609375 -11.96484375 16.5546875 C-11.95582031 17.65039062 -11.94679687 18.74609375 -11.9375 19.875 C-11.92589844 20.96554687 -11.91429687 22.05609375 -11.90234375 23.1796875 C-12 26 -12 26 -13 28 C-13.66 28 -14.32 28 -15 28 C-15 29.32 -15 30.64 -15 32 C-14.01 32 -13.02 32 -12 32 C-12 32.66 -12 33.32 -12 34 C-12.99 34 -13.98 34 -15 34 C-15 34.66 -15 35.32 -15 36 C-15.66 36 -16.32 36 -17 36 C-17 35.34 -17 34.68 -17 34 C-17.66 34 -18.32 34 -19 34 C-19 33.34 -19 32.68 -19 32 C-19.66 32 -20.32 32 -21 32 C-21 30.02 -21 28.04 -21 26 C-19.02 26 -17.04 26 -15 26 C-15 24.68 -15 23.36 -15 22 C-15.66 22 -16.32 22 -17 22 C-16.67 20.02 -16.34 18.04 -16 16 C-16.99 16 -17.98 16 -19 16 C-18.67 15.01 -18.34 14.02 -18 13 C-14.9375 11.8125 -14.9375 11.8125 -12 11 C-14.97 10.01 -17.94 9.02 -21 8 C-21 8.66 -21 9.32 -21 10 C-22.32 10 -23.64 10 -25 10 C-25 10.66 -25 11.32 -25 12 C-25.66 12 -26.32 12 -27 12 C-27 12.66 -27 13.32 -27 14 C-27.66 14 -28.32 14 -29 14 C-28.979375 14.94875 -28.95875 15.8975 -28.9375 16.875 C-29 20 -29 20 -30 22 C-30.15004973 23.3734635 -30.24838006 24.7528526 -30.31640625 26.1328125 C-30.35830078 26.93847656 -30.40019531 27.74414062 -30.44335938 28.57421875 C-30.50233398 29.83685547 -30.50233398 29.83685547 -30.5625 31.125 C-30.60568359 31.97449219 -30.64886719 32.82398438 -30.69335938 33.69921875 C-30.79954236 35.79928223 -30.90028497 37.89961948 -31 40 C-30.34 40 -29.68 40 -29 40 C-29 41.32 -29 42.64 -29 44 C-28.34 44 -27.68 44 -27 44 C-27 44.66 -27 45.32 -27 46 C-25.68 46 -24.36 46 -23 46 C-23 46.66 -23 47.32 -23 48 C-19.7 48 -16.4 48 -13 48 C-13 46.68 -13 45.36 -13 44 C-5.71428571 39.42857143 -5.71428571 39.42857143 -1 40 C-1 39.34 -1 38.68 -1 38 C-0.34 38 0.32 38 1 38 C1 37.34 1 36.68 1 36 C1.66 36 2.32 36 3 36 C3 33.36 3 30.72 3 28 C3.66 28 4.32 28 5 28 C5 24.7 5 21.4 5 18 C5.66 18 6.32 18 7 18 C7.33 16.68 7.66 15.36 8 14 C8.99 14 9.98 14 11 14 C11 13.34 11 12.68 11 12 C11.66 12 12.32 12 13 12 C13 12.66 13 13.32 13 14 C13.66 14 14.32 14 15 14 C15 15.98 15 17.96 15 20 C14.34 20 13.68 20 13 20 C13 18.68 13 17.36 13 16 C11.68 16 10.36 16 9 16 C9 16.66 9 17.32 9 18 C9.66 18 10.32 18 11 18 C11 19.98 11 21.96 11 24 C11.66 24 12.32 24 13 24 C12.34 26.64 11.68 29.28 11 32 C11.66 32 12.32 32 13 32 C13 32.66 13 33.32 13 34 C12.34 34 11.68 34 11 34 C11 35.98 11 37.96 11 40 C11.99 39.67 12.98 39.34 14 39 C14.33 36.69 14.66 34.38 15 32 C17.64 32 20.28 32 23 32 C23 31.34 23 30.68 23 30 C60.95 30 98.9 30 138 30 C138 30.66 138 31.32 138 32 C102.69 32 67.38 32 31 32 C31 33.98 31 35.96 31 38 C30.34 38 29.68 38 29 38 C29 38.66 29 39.32 29 40 C27.68 40 26.36 40 25 40 C25 40.66 25 41.32 25 42 C24.34 42 23.68 42 23 42 C23 42.66 23 43.32 23 44 C22.34 44 21.68 44 21 44 C21 44.66 21 45.32 21 46 C19.68 46 18.36 46 17 46 C17 46.66 17 47.32 17 48 C15.68 48 14.36 48 13 48 C13 48.66 13 49.32 13 50 C11.68 50 10.36 50 9 50 C9 49.34 9 48.68 9 48 C9.66 48 10.32 48 11 48 C11.33 46.02 11.66 44.04 12 42 C11.01 42 10.02 42 9 42 C9 43.32 9 44.64 9 46 C8.34 46 7.68 46 7 46 C7 46.66 7 47.32 7 48 C6.34 48 5.68 48 5 48 C5 48.66 5 49.32 5 50 C4.34 50 3.68 50 3 50 C3 50.66 3 51.32 3 52 C2.34 52 1.68 52 1 52 C1 52.66 1 53.32 1 54 C0.34 54 -0.32 54 -1 54 C-1 54.99 -1 55.98 -1 57 C-0.01 57.495 -0.01 57.495 1 58 C-0.32 58 -1.64 58 -3 58 C-3 58.66 -3 59.32 -3 60 C-15.66970387 60.3690205 -15.66970387 60.3690205 -21 58 C-21 57.34 -21 56.68 -21 56 C-22.32 56 -23.64 56 -25 56 C-25 55.34 -25 54.68 -25 54 C-25.99 54 -26.98 54 -28 54 C-28 53.34 -28 52.68 -28 52 C-28.99 52 -29.98 52 -31 52 C-31 51.34 -31 50.68 -31 50 C-31.99 50 -32.98 50 -34 50 C-34 49.34 -34 48.68 -34 48 C-34.66 48 -35.32 48 -36 48 C-36 47.34 -36 46.68 -36 46 C-36.66 46 -37.32 46 -38 46 C-38 44.68 -38 43.36 -38 42 C-38.66 42 -39.32 42 -40 42 C-40 34.08 -40 26.16 -40 18 C-39.34 18 -38.68 18 -38 18 C-37.896875 17.278125 -37.79375 16.55625 -37.6875 15.8125 C-36.93206053 12.72206579 -35.84468685 10.58256159 -34 8 C-33.34 8 -32.68 8 -32 8 C-32 7.34 -32 6.68 -32 6 C-31.01 6 -30.02 6 -29 6 C-29 5.34 -29 4.68 -29 4 C-27.68 4 -26.36 4 -25 4 C-25 3.34 -25 2.68 -25 2 C-23.68 2 -22.36 2 -21 2 C-21 1.34 -21 0.68 -21 0 C-13.97381022 -1.5056121 -7.10547081 -0.64057643 0 0 Z " fill="#999BB6" transform="translate(170,284)"/>
<path d="M0 0 C1.32 0 2.64 0 4 0 C4 2.64 4 5.28 4 8 C4.66 8 5.32 8 6 8 C6 23.51 6 39.02 6 55 C20.52 55 35.04 55 50 55 C50 56.98 50 58.96 50 61 C49.01 61 48.02 61 47 61 C47 61.66 47 62.32 47 63 C45.68 63 44.36 63 43 63 C43 63.66 43 64.32 43 65 C40.69 65 38.38 65 36 65 C36 65.66 36 66.32 36 67 C34.02 67 32.04 67 30 67 C30 67.66 30 68.32 30 69 C28.68 69 27.36 69 26 69 C26 69.66 26 70.32 26 71 C22.7 71 19.4 71 16 71 C16 71.66 16 72.32 16 73 C12.7 73 9.4 73 6 73 C6 73.66 6 74.32 6 75 C1.38 75 -3.24 75 -8 75 C-8 74.34 -8 73.68 -8 73 C-6.02 73 -4.04 73 -2 73 C-2 72.34 -2 71.68 -2 71 C-1.34 71 -0.68 71 0 71 C0 70.34 0 69.68 0 69 C0.66 69 1.32 69 2 69 C2 47.88 2 26.76 2 5 C1.34 5 0.68 5 0 5 C0 3.35 0 1.7 0 0 Z " fill="#324FF5" transform="translate(328,239)"/>
<path d="M0 0 C4.62 0 9.24 0 14 0 C14 0.66 14 1.32 14 2 C15.32 2 16.64 2 18 2 C18 2.66 18 3.32 18 4 C18.66 4 19.32 4 20 4 C20 5.32 20 6.64 20 8 C20.66 8 21.32 8 22 8 C24.74225803 13.65590719 24.45780584 18.98655091 23 25 C22.34 25 21.68 25 21 25 C21 25.66 21 26.32 21 27 C20.34 27 19.68 27 19 27 C19 27.66 19 28.32 19 29 C18.34 29 17.68 29 17 29 C17 29.66 17 30.32 17 31 C15.35 31 13.7 31 12 31 C12 31.66 12 32.32 12 33 C8.04 33 4.08 33 0 33 C0 32.34 0 31.68 0 31 C-1.32 31 -2.64 31 -4 31 C-4 30.34 -4 29.68 -4 29 C-4.66 29 -5.32 29 -6 29 C-6 27.68 -6 26.36 -6 25 C-6.66 25 -7.32 25 -8 25 C-8 24.01 -8 23.02 -8 22 C-8.66 22 -9.32 22 -10 22 C-10 18.04 -10 14.08 -10 10 C-9.34 10 -8.68 10 -8 10 C-8 8.68 -8 7.36 -8 6 C-7.34 6 -6.68 6 -6 6 C-6 5.34 -6 4.68 -6 4 C-5.34 4 -4.68 4 -4 4 C-4 3.34 -4 2.68 -4 2 C-2.68 2 -1.36 2 0 2 C0 1.34 0 0.68 0 0 Z " fill="#3B58FB" transform="translate(92,453)"/>
<path d="M0 0 C0 0.66 0 1.32 0 2 C0.86625 2.268125 1.7325 2.53625 2.625 2.8125 C5.91791964 3.97111987 8.91127875 5.38209839 12 7 C12 7.66 12 8.32 12 9 C10.02 9 8.04 9 6 9 C6 8.34 6 7.68 6 7 C4.700625 6.814375 4.700625 6.814375 3.375 6.625 C0 6 0 6 -2.7265625 4.98046875 C-6.4554005 3.86359723 -9.89413044 3.65795311 -13.75 3.6875 C-14.44867188 3.68878906 -15.14734375 3.69007813 -15.8671875 3.69140625 C-21.59180281 3.79702646 -26.6718889 4.84826282 -32 7 C-32 7.66 -32 8.32 -32 9 C-32.66 9 -33.32 9 -34 9 C-34 9.66 -34 10.32 -34 11 C-34.66 11 -35.32 11 -36 11 C-36 11.66 -36 12.32 -36 13 C-36.66 13 -37.32 13 -38 13 C-38 13.66 -38 14.32 -38 15 C-38.66 15 -39.32 15 -40 15 C-40 15.66 -40 16.32 -40 17 C-40.66 17 -41.32 17 -42 17 C-42 17.66 -42 18.32 -42 19 C-42.66 19 -43.32 19 -44 19 C-44 20.98 -44 22.96 -44 25 C-44.66 25 -45.32 25 -46 25 C-46 33.58 -46 42.16 -46 51 C-45.34 51 -44.68 51 -44 51 C-44 52.98 -44 54.96 -44 57 C-43.34 57 -42.68 57 -42 57 C-42 58.32 -42 59.64 -42 61 C-41.34 61 -40.68 61 -40 61 C-40 62.32 -40 63.64 -40 65 C-39.34 65 -38.68 65 -38 65 C-38 65.66 -38 66.32 -38 67 C-37.34 67 -36.68 67 -36 67 C-36 67.66 -36 68.32 -36 69 C-35.34 69 -34.68 69 -34 69 C-34 69.66 -34 70.32 -34 71 C-33.34 71 -32.68 71 -32 71 C-32 71.66 -32 72.32 -32 73 C-31.34 73 -30.68 73 -30 73 C-30 73.66 -30 74.32 -30 75 C-29.34 75 -28.68 75 -28 75 C-28 75.66 -28 76.32 -28 77 C-26.68 77 -25.36 77 -24 77 C-24 77.66 -24 78.32 -24 79 C-22.68 79 -21.36 79 -20 79 C-20 79.66 -20 80.32 -20 81 C-16.08305929 80.86100313 -12.16652898 80.71261867 -8.25 80.5625 C-7.13882813 80.52318359 -6.02765625 80.48386719 -4.8828125 80.44335938 C-3.81289063 80.40146484 -2.74296875 80.35957031 -1.640625 80.31640625 C-0.65610352 80.27974854 0.32841797 80.24309082 1.34277344 80.20532227 C3.68923551 80.02401258 5.74718412 79.65668181 8 79 C8 78.34 8 77.68 8 77 C9.32 77 10.64 77 12 77 C12 76.34 12 75.68 12 75 C13.32 75 14.64 75 16 75 C16 74.34 16 73.68 16 73 C16.66 73 17.32 73 18 73 C18 72.34 18 71.68 18 71 C18.66 71 19.32 71 20 71 C20 70.34 20 69.68 20 69 C20.66 69 21.32 69 22 69 C22.66 67.02 23.32 65.04 24 63 C24.66 63 25.32 63 26 63 C26 61.68 26 60.36 26 59 C26.66 59 27.32 59 28 59 C28.91470012 54.31673539 29.18302799 49.75821878 29.1875 45 C29.19974609 44.31421875 29.21199219 43.6284375 29.22460938 42.921875 C29.23718947 38.52722762 28.47661911 35.10885316 27 31 C27 29.68 27 28.36 27 27 C27.99 27 28.98 27 30 27 C35.28303624 33.29900475 34.32333374 43.22755427 34 51 C33.74735098 53.68766286 33.39583497 56.32811397 33 59 C32.34 59 31.68 59 31 59 C30.62875 60.2375 30.62875 60.2375 30.25 61.5 C28.81295189 65.52373471 26.97645485 69.21979024 25 73 C24.01 73 23.02 73 22 73 C22 73.66 22 74.32 22 75 C20.68 75 19.36 75 18 75 C18 75.66 18 76.32 18 77 C17.34 77 16.68 77 16 77 C16 77.66 16 78.32 16 79 C14.68 79 13.36 79 12 79 C12 79.99 12 80.98 12 82 C7.05 82.495 7.05 82.495 2 83 C2 83.66 2 84.32 2 85 C-4.6 85 -11.2 85 -18 85 C-18 84.34 -18 83.68 -18 83 C-18.825 83.0825 -19.65 83.165 -20.5 83.25 C-25.01303847 82.92764011 -28.11795056 81.20705349 -32 79 C-32 78.34 -32 77.68 -32 77 C-32.66 77 -33.32 77 -34 77 C-34 76.34 -34 75.68 -34 75 C-34.66 75 -35.32 75 -36 75 C-36 74.34 -36 73.68 -36 73 C-36.66 73 -37.32 73 -38 73 C-38 72.34 -38 71.68 -38 71 C-38.66 71 -39.32 71 -40 71 C-40 70.34 -40 69.68 -40 69 C-40.66 69 -41.32 69 -42 69 C-42 67.68 -42 66.36 -42 65 C-42.66 65 -43.32 65 -44 65 C-44 63.68 -44 62.36 -44 61 C-44.66 61 -45.32 61 -46 61 C-46.33 59.68 -46.66 58.36 -47 57 C-47.66 57 -48.32 57 -49 57 C-50.18832629 50.63697202 -50.18392204 44.45463091 -50.1875 38 C-50.19974609 36.83726562 -50.21199219 35.67453125 -50.22460938 34.4765625 C-50.22654297 33.34992188 -50.22847656 32.22328125 -50.23046875 31.0625 C-50.23457764 30.04285156 -50.23868652 29.02320313 -50.24291992 27.97265625 C-49.97731755 24.7224306 -49.14430605 22.04316812 -48 19 C-47.34 19 -46.68 19 -46 19 C-46 18.34 -46 17.68 -46 17 C-45.34 17 -44.68 17 -44 17 C-44 15.68 -44 14.36 -44 13 C-43.34 13 -42.68 13 -42 13 C-42 12.34 -42 11.68 -42 11 C-41.34 11 -40.68 11 -40 11 C-40 10.34 -40 9.68 -40 9 C-39.34 9 -38.68 9 -38 9 C-38 8.01 -38 7.02 -38 6 C-36.71086513 5.32845067 -35.41859796 4.66291141 -34.125 4 C-33.40570313 3.62875 -32.68640625 3.2575 -31.9453125 2.875 C-30 2 -30 2 -28 2 C-28 1.34 -28 0.68 -28 0 C-18.63293695 -1.44108662 -9.36706305 -1.44108662 0 0 Z " fill="#4F5058" transform="translate(344,150)"/>
<path d="M0 0 C0.66 0 1.32 0 2 0 C2 0.66 2 1.32 2 2 C2.66 2 3.32 2 4 2 C4 3.98 4 5.96 4 8 C3.34 8 2.68 8 2 8 C2 6.68 2 5.36 2 4 C0.68 4 -0.64 4 -2 4 C-2 4.66 -2 5.32 -2 6 C-1.34 6 -0.68 6 0 6 C0 7.98 0 9.96 0 12 C0.66 12 1.32 12 2 12 C1.34 14.64 0.68 17.28 0 20 C0.66 20 1.32 20 2 20 C2 20.66 2 21.32 2 22 C1.34 22 0.68 22 0 22 C0 23.98 0 25.96 0 28 C0.99 27.67 1.98 27.34 3 27 C3.33 24.69 3.66 22.38 4 20 C6.64 20 9.28 20 12 20 C12 19.34 12 18.68 12 18 C49.95 18 87.9 18 127 18 C127 18.66 127 19.32 127 20 C91.69 20 56.38 20 20 20 C20 21.98 20 23.96 20 26 C19.34 26 18.68 26 18 26 C18 26.66 18 27.32 18 28 C16.68 28 15.36 28 14 28 C14 28.66 14 29.32 14 30 C13.34 30 12.68 30 12 30 C12 30.66 12 31.32 12 32 C11.34 32 10.68 32 10 32 C10 32.66 10 33.32 10 34 C8.68 34 7.36 34 6 34 C6 34.66 6 35.32 6 36 C4.68 36 3.36 36 2 36 C2 36.66 2 37.32 2 38 C0.68 38 -0.64 38 -2 38 C-2 37.34 -2 36.68 -2 36 C-1.34 36 -0.68 36 0 36 C0.495 33.03 0.495 33.03 1 30 C0.01 30 -0.98 30 -2 30 C-2 31.32 -2 32.64 -2 34 C-2.66 34 -3.32 34 -4 34 C-4 34.66 -4 35.32 -4 36 C-4.66 36 -5.32 36 -6 36 C-6 36.66 -6 37.32 -6 38 C-6.66 38 -7.32 38 -8 38 C-8 36.68 -8 35.36 -8 34 C-7.34 34 -6.68 34 -6 34 C-6 33.34 -6 32.68 -6 32 C-5.34 32 -4.68 32 -4 32 C-4 30.02 -4 28.04 -4 26 C-3.34 26 -2.68 26 -2 26 C-2 22.7 -2 19.4 -2 16 C-2.66 16 -3.32 16 -4 16 C-4 17.32 -4 18.64 -4 20 C-4.66 20 -5.32 20 -6 20 C-6 21.98 -6 23.96 -6 26 C-6.66 26 -7.32 26 -8 26 C-8 27.98 -8 29.96 -8 32 C-9.32 32 -10.64 32 -12 32 C-12 31.34 -12 30.68 -12 30 C-11.34 30 -10.68 30 -10 30 C-10 28.02 -10 26.04 -10 24 C-9.34 24 -8.68 24 -8 24 C-8 21.36 -8 18.72 -8 16 C-7.34 16 -6.68 16 -6 16 C-6 12.7 -6 9.4 -6 6 C-5.34 6 -4.68 6 -4 6 C-3.67 4.68 -3.34 3.36 -3 2 C-2.01 2 -1.02 2 0 2 C0 1.34 0 0.68 0 0 Z " fill="#484B58" transform="translate(181,296)"/>
<path d="M0 0 C0.66 0 1.32 0 2 0 C3.31223496 3.93670488 2.24296256 6.12488144 1 10 C0.34 10 -0.32 10 -1 10 C-1 17.26 -1 24.52 -1 32 C-0.34 32 0.32 32 1 32 C1 32.66 1 33.32 1 34 C2.65 34 4.3 34 6 34 C6 34.66 6 35.32 6 36 C7.32 36 8.64 36 10 36 C10 36.66 10 37.32 10 38 C13.3 38 16.6 38 20 38 C20 36.68 20 35.36 20 34 C27.28571429 29.42857143 27.28571429 29.42857143 32 30 C32 29.34 32 28.68 32 28 C32.66 28 33.32 28 34 28 C34 29.32 34 30.64 34 32 C33.34 32 32.68 32 32 32 C32 32.66 32 33.32 32 34 C33.32 34 34.64 34 36 34 C36 32.02 36 30.04 36 28 C36.66 28 37.32 28 38 28 C38 26.02 38 24.04 38 22 C38.66 22 39.32 22 40 22 C40 20.68 40 19.36 40 18 C40.66 18 41.32 18 42 18 C42 21.3 42 24.6 42 28 C41.34 28 40.68 28 40 28 C40 29.98 40 31.96 40 34 C39.34 34 38.68 34 38 34 C38 34.66 38 35.32 38 36 C37.34 36 36.68 36 36 36 C36 37.98 36 39.96 36 42 C35.34 42 34.68 42 34 42 C34 42.66 34 43.32 34 44 C33.34 44 32.68 44 32 44 C32 44.99 32 45.98 32 47 C32.99 47.495 32.99 47.495 34 48 C32.68 48 31.36 48 30 48 C30 48.66 30 49.32 30 50 C17.33029613 50.3690205 17.33029613 50.3690205 12 48 C12 47.34 12 46.68 12 46 C10.68 46 9.36 46 8 46 C8 45.34 8 44.68 8 44 C7.01 44 6.02 44 5 44 C5 43.34 5 42.68 5 42 C4.01 42 3.02 42 2 42 C2 40.68 2 39.36 2 38 C1.34 38 0.68 38 0 38 C-3.81400972 31.57324347 -4.52964107 26.89973297 -4.25 19.5 C-4.23195312 18.5821875 -4.21390625 17.664375 -4.1953125 16.71875 C-4.14863102 14.47803908 -4.08318522 12.23960201 -4 10 C-3.34 10 -2.68 10 -2 10 C-2.04125 9.0925 -2.0825 8.185 -2.125 7.25 C-2.00468444 4.1217954 -1.6085292 2.61385994 0 0 Z " fill="#9EA0AC" transform="translate(137,294)"/>
<path d="M0 0 C1.98 0 3.96 0 6 0 C5.125 4.75 5.125 4.75 4 7 C3.34 7 2.68 7 2 7 C2 8.32 2 9.64 2 11 C1.34 11 0.68 11 0 11 C0 11.66 0 12.32 0 13 C-0.66 13 -1.32 13 -2 13 C-2 14.32 -2 15.64 -2 17 C-2.66 17 -3.32 17 -4 17 C-4 17.99 -4 18.98 -4 20 C-4.66 20 -5.32 20 -6 20 C-6 21.65 -6 23.3 -6 25 C-6.66 25 -7.32 25 -8 25 C-8 26.32 -8 27.64 -8 29 C-8.66 29 -9.32 29 -10 29 C-10 29.66 -10 30.32 -10 31 C-10.66 31 -11.32 31 -12 31 C-12 32.32 -12 33.64 -12 35 C-12.66 35 -13.32 35 -14 35 C-14 36.32 -14 37.64 -14 39 C-14.66 39 -15.32 39 -16 39 C-16 39.66 -16 40.32 -16 41 C-16.66 41 -17.32 41 -18 41 C-18.33 42.98 -18.66 44.96 -19 47 C-19.99 47 -20.98 47 -22 47 C-22 47.66 -22 48.32 -22 49 C-22.66 49 -23.32 49 -24 49 C-24 50.32 -24 51.64 -24 53 C-24.66 53 -25.32 53 -26 53 C-26 53.66 -26 54.32 -26 55 C-26.66 55 -27.32 55 -28 55 C-28 55.66 -28 56.32 -28 57 C-29.98 57 -31.96 57 -34 57 C-34 56.34 -34 55.68 -34 55 C-34.66 55 -35.32 55 -36 55 C-36 54.34 -36 53.68 -36 53 C-37.32 53 -38.64 53 -40 53 C-40 52.34 -40 51.68 -40 51 C-40.66 51 -41.32 51 -42 51 C-42 50.34 -42 49.68 -42 49 C-42.66 49 -43.32 49 -44 49 C-44 48.34 -44 47.68 -44 47 C-44.66 47 -45.32 47 -46 47 C-46 46.34 -46 45.68 -46 45 C-46.66 45 -47.32 45 -48 45 C-48 44.34 -48 43.68 -48 43 C-48.66 43 -49.32 43 -50 43 C-50 41.68 -50 40.36 -50 39 C-49.34 39 -48.68 39 -48 39 C-48 38.34 -48 37.68 -48 37 C-46.68 37 -45.36 37 -44 37 C-44 37.66 -44 38.32 -44 39 C-43.34 39 -42.68 39 -42 39 C-42 39.66 -42 40.32 -42 41 C-41.34 41 -40.68 41 -40 41 C-40 41.66 -40 42.32 -40 43 C-39.34 43 -38.68 43 -38 43 C-38 43.66 -38 44.32 -38 45 C-37.34 45 -36.68 45 -36 45 C-36 45.66 -36 46.32 -36 47 C-35.34 47 -34.68 47 -34 47 C-34 47.66 -34 48.32 -34 49 C-33.34 49 -32.68 49 -32 49 C-32 49.66 -32 50.32 -32 51 C-31.34 51 -30.68 51 -30 51 C-30 49.68 -30 48.36 -30 47 C-29.34 47 -28.68 47 -28 47 C-28 46.34 -28 45.68 -28 45 C-27.34 45 -26.68 45 -26 45 C-26 43.68 -26 42.36 -26 41 C-25.34 41 -24.68 41 -24 41 C-24 40.34 -24 39.68 -24 39 C-23.34 39 -22.68 39 -22 39 C-22 37.68 -22 36.36 -22 35 C-21.01 35 -20.02 35 -19 35 C-18.01 31.7 -17.02 28.4 -16 25 C-15.34 25 -14.68 25 -14 25 C-14 23.68 -14 22.36 -14 21 C-13.34 21 -12.68 21 -12 21 C-12 20.34 -12 19.68 -12 19 C-11.34 19 -10.68 19 -10 19 C-10 17.68 -10 16.36 -10 15 C-9.34 15 -8.68 15 -8 15 C-8 14.34 -8 13.68 -8 13 C-7.34 13 -6.68 13 -6 13 C-6 11.02 -6 9.04 -6 7 C-5.34 7 -4.68 7 -4 7 C-4 6.01 -4 5.02 -4 4 C-3.34 4 -2.68 4 -2 4 C-2 3.34 -2 2.68 -2 2 C-1.34 2 -0.68 2 0 2 C0 1.34 0 0.68 0 0 Z " fill="#38383C" transform="translate(366,152)"/>
<path d="M0 0 C1.32 0 2.64 0 4 0 C4 0.66 4 1.32 4 2 C4.66 2 5.32 2 6 2 C6 2.66 6 3.32 6 4 C6.66 4 7.32 4 8 4 C8 4.66 8 5.32 8 6 C8.66 6 9.32 6 10 6 C10 6.66 10 7.32 10 8 C10.66 8 11.32 8 12 8 C12 8.66 12 9.32 12 10 C12.66 10 13.32 10 14 10 C14 10.66 14 11.32 14 12 C14.66 12 15.32 12 16 12 C16 12.66 16 13.32 16 14 C16.66 14 17.32 14 18 14 C18 14.66 18 15.32 18 16 C18.66 16 19.32 16 20 16 C20 16.66 20 17.32 20 18 C20.66 18 21.32 18 22 18 C22 18.66 22 19.32 22 20 C23.32 20 24.64 20 26 20 C26 20.66 26 21.32 26 22 C26.66 22 27.32 22 28 22 C28 22.99 28 23.98 28 25 C29.32 25.33 30.64 25.66 32 26 C32 26.66 32 27.32 32 28 C32.66 28 33.32 28 34 28 C34 28.66 34 29.32 34 30 C34.66 30 35.32 30 36 30 C36 30.66 36 31.32 36 32 C37.32 32 38.64 32 40 32 C40 32.66 40 33.32 40 34 C40.66 34 41.32 34 42 34 C42 34.66 42 35.32 42 36 C42.66 36 43.32 36 44 36 C44 36.66 44 37.32 44 38 C44.66 38 45.32 38 46 38 C46 38.66 46 39.32 46 40 C47.32 40 48.64 40 50 40 C50 40.66 50 41.32 50 42 C50.66 42 51.32 42 52 42 C52 42.66 52 43.32 52 44 C52.66 44 53.32 44 54 44 C54 44.66 54 45.32 54 46 C54.639375 46.226875 55.27875 46.45375 55.9375 46.6875 C60.13320261 48.48565826 64.03900556 50.73904021 68 53 C68 53.66 68 54.32 68 55 C68.66 55 69.32 55 70 55 C70 55.66 70 56.32 70 57 C72.64 57 75.28 57 78 57 C78 56.34 78 55.68 78 55 C78.99 55 79.98 55 81 55 C81.309375 54.1646875 81.309375 54.1646875 81.625 53.3125 C83.57683032 50.02987629 85.94230994 48.29326754 89 46 C89.66 46 90.32 46 91 46 C91 45.34 91 44.68 91 44 C91.66 44 92.32 44 93 44 C93.061875 43.401875 93.12375 42.80375 93.1875 42.1875 C94.33835414 39.08904655 96.10634113 38.44682943 99 37 C99.99 36.67 100.98 36.34 102 36 C102 35.34 102 34.68 102 34 C102.99 34 103.98 34 105 34 C105 33.34 105 32.68 105 32 C105.66 32 106.32 32 107 32 C107 31.34 107 30.68 107 30 C107.66 30 108.32 30 109 30 C109 29.34 109 28.68 109 28 C110.32 28 111.64 28 113 28 C113 27.34 113 26.68 113 26 C113.66 26 114.32 26 115 26 C115 25.34 115 24.68 115 24 C115.66 24 116.32 24 117 24 C117 23.34 117 22.68 117 22 C117.66 22 118.32 22 119 22 C119 21.34 119 20.68 119 20 C120.65 20 122.3 20 124 20 C124 22 124 22 122.625 23.625 C121 25 121 25 119 25 C119 25.66 119 26.32 119 27 C117.68 27.33 116.36 27.66 115 28 C115 28.66 115 29.32 115 30 C113.68 30 112.36 30 111 30 C111 30.66 111 31.32 111 32 C110.34 32 109.68 32 109 32 C109 32.66 109 33.32 109 34 C108.34 34 107.68 34 107 34 C107 34.66 107 35.32 107 36 C106.34 36 105.68 36 105 36 C105 36.66 105 37.32 105 38 C103.34928604 39.02611949 101.68029994 40.02308143 100 41 C99.46375 41.556875 98.9275 42.11375 98.375 42.6875 C97 44 97 44 94 44 C93.67 45.65 93.34 47.3 93 49 C92.34 49 91.68 49 91 49 C91 49.66 91 50.32 91 51 C90.34 51 89.68 51 89 51 C89 51.66 89 52.32 89 53 C87.68 53 86.36 53 85 53 C85 53.66 85 54.32 85 55 C84.34 55 83.68 55 83 55 C83 55.66 83 56.32 83 57 C81.35 57.33 79.7 57.66 78 58 C78 58.66 78 59.32 78 60 C71.75276774 60.82200425 67.28682163 57.92551394 62 55 C62 54.34 62 53.68 62 53 C60.02 52.34 58.04 51.68 56 51 C56 50.34 56 49.68 56 49 C54.02 48.34 52.04 47.68 50 47 C50 46.01 50 45.02 50 44 C48.02 43.34 46.04 42.68 44 42 C44 41.34 44 40.68 44 40 C43.34 40 42.68 40 42 40 C42 39.34 42 38.68 42 38 C40.68 38 39.36 38 38 38 C38 37.34 38 36.68 38 36 C37.34 36 36.68 36 36 36 C36 35.34 36 34.68 36 34 C35.34 34 34.68 34 34 34 C34 33.34 34 32.68 34 32 C33.34 32 32.68 32 32 32 C32 31.34 32 30.68 32 30 C31.34 30 30.68 30 30 30 C30 29.34 30 28.68 30 28 C28.02 27.67 26.04 27.34 24 27 C24 26.01 24 25.02 24 24 C23.34 24 22.68 24 22 24 C22 23.34 22 22.68 22 22 C21.34 22 20.68 22 20 22 C20 21.34 20 20.68 20 20 C19.34 20 18.68 20 18 20 C18 19.34 18 18.68 18 18 C17.34 18 16.68 18 16 18 C16 17.34 16 16.68 16 16 C15.34 16 14.68 16 14 16 C14 15.34 14 14.68 14 14 C13.34 14 12.68 14 12 14 C12 13.34 12 12.68 12 12 C11.34 12 10.68 12 10 12 C10 11.34 10 10.68 10 10 C9.34 10 8.68 10 8 10 C8 9.34 8 8.68 8 8 C7.34 8 6.68 8 6 8 C6 7.34 6 6.68 6 6 C5.34 6 4.68 6 4 6 C4 5.34 4 4.68 4 4 C3.34 4 2.68 4 2 4 C2 3.34 2 2.68 2 2 C1.34 2 0.68 2 0 2 C0 1.34 0 0.68 0 0 Z " fill="#62656F" transform="translate(173,205)"/>
<path d="M0 0 C0.99 0 1.98 0 3 0 C8.28303624 6.29900475 7.32333374 16.22755427 7 24 C6.74735098 26.68766286 6.39583497 29.32811397 6 32 C5.34 32 4.68 32 4 32 C3.7525 32.825 3.505 33.65 3.25 34.5 C1.81295189 38.52373471 -0.02354515 42.21979024 -2 46 C-2.99 46 -3.98 46 -5 46 C-5 46.66 -5 47.32 -5 48 C-6.32 48 -7.64 48 -9 48 C-9 48.66 -9 49.32 -9 50 C-9.66 50 -10.32 50 -11 50 C-11 50.66 -11 51.32 -11 52 C-12.32 52 -13.64 52 -15 52 C-15 52.99 -15 53.98 -15 55 C-19.95 55.495 -19.95 55.495 -25 56 C-25 56.66 -25 57.32 -25 58 C-31.6 58 -38.2 58 -45 58 C-45 57.34 -45 56.68 -45 56 C-46.32 55.67 -47.64 55.34 -49 55 C-41.74 55.33 -34.48 55.66 -27 56 C-27 55.34 -27 54.68 -27 54 C-24.36 53.34 -21.72 52.68 -19 52 C-19 51.34 -19 50.68 -19 50 C-17.68 50 -16.36 50 -15 50 C-15 49.34 -15 48.68 -15 48 C-13.68 48 -12.36 48 -11 48 C-11 47.34 -11 46.68 -11 46 C-10.34 46 -9.68 46 -9 46 C-9 45.34 -9 44.68 -9 44 C-8.34 44 -7.68 44 -7 44 C-7 43.34 -7 42.68 -7 42 C-6.34 42 -5.68 42 -5 42 C-4.34 40.02 -3.68 38.04 -3 36 C-2.34 36 -1.68 36 -1 36 C-1 34.68 -1 33.36 -1 32 C-0.34 32 0.32 32 1 32 C1.91470012 27.31673539 2.18302799 22.75821878 2.1875 18 C2.20586914 16.97132813 2.20586914 16.97132813 2.22460938 15.921875 C2.23718947 11.52722762 1.47661911 8.10885316 0 4 C0 2.68 0 1.36 0 0 Z " fill="#63636D" transform="translate(371,177)"/>
<path d="M0 0 C1.32 0 2.64 0 4 0 C4 2.64 4 5.28 4 8 C4.66 8 5.32 8 6 8 C6 28.79 6 49.58 6 71 C5.34 71 4.68 71 4 71 C4 71.66 4 72.32 4 73 C3.34 73 2.68 73 2 73 C2 73.66 2 74.32 2 75 C-1.3 75 -4.6 75 -8 75 C-8 74.34 -8 73.68 -8 73 C-6.02 73 -4.04 73 -2 73 C-2 72.34 -2 71.68 -2 71 C-1.34 71 -0.68 71 0 71 C0 70.34 0 69.68 0 69 C0.66 69 1.32 69 2 69 C2 47.88 2 26.76 2 5 C1.34 5 0.68 5 0 5 C0 3.35 0 1.7 0 0 Z " fill="#42434B" transform="translate(328,239)"/>
<path d="M0 0 C37.29 0 74.58 0 113 0 C113 0.66 113 1.32 113 2 C112.37392853 2.01030746 111.74785706 2.02061493 111.10281372 2.03123474 C103.11015178 2.16334672 95.11755981 2.29935172 87.125 2.4375 C85.84626007 2.45956512 84.56752014 2.48163025 83.25003052 2.50436401 C68.14250614 2.76775752 53.03931011 3.06787152 37.9375 3.5625 C25.28646564 3.97533625 12.65700222 4.11600104 0 4 C0 2.68 0 1.36 0 0 Z " fill="#3F3F48" transform="translate(175,199)"/>
<path d="M0 0 C0.33 0 0.66 0 1 0 C1 7.59 1 15.18 1 23 C1.66 23 2.32 23 3 23 C3 24.98 3 26.96 3 29 C3.66 29 4.32 29 5 29 C5 30.32 5 31.64 5 33 C5.66 33 6.32 33 7 33 C7 34.32 7 35.64 7 37 C7.66 37 8.32 37 9 37 C9 37.66 9 38.32 9 39 C9.66 39 10.32 39 11 39 C11 39.66 11 40.32 11 41 C11.66 41 12.32 41 13 41 C13 41.66 13 42.32 13 43 C13.66 43 14.32 43 15 43 C15 43.66 15 44.32 15 45 C15.66 45 16.32 45 17 45 C17 45.66 17 46.32 17 47 C17.66 47 18.32 47 19 47 C19 47.66 19 48.32 19 49 C20.32 49 21.64 49 23 49 C23 49.66 23 50.32 23 51 C24.32 51 25.64 51 27 51 C27 51.66 27 52.32 27 53 C33.6 53 40.2 53 47 53 C47 53.66 47 54.32 47 55 C43.16692831 55.11719175 39.33432392 55.18758077 35.5 55.25 C34.42234375 55.28351563 33.3446875 55.31703125 32.234375 55.3515625 C25.30419508 55.43607689 20.92364015 54.65195291 15 51 C15 50.34 15 49.68 15 49 C14.34 49 13.68 49 13 49 C13 48.34 13 47.68 13 47 C12.34 47 11.68 47 11 47 C11 46.34 11 45.68 11 45 C10.34 45 9.68 45 9 45 C9 44.34 9 43.68 9 43 C8.34 43 7.68 43 7 43 C7 42.34 7 41.68 7 41 C6.34 41 5.68 41 5 41 C5 39.68 5 38.36 5 37 C4.34 37 3.68 37 3 37 C3 35.68 3 34.36 3 33 C2.34 33 1.68 33 1 33 C0.67 31.68 0.34 30.36 0 29 C-0.66 29 -1.32 29 -2 29 C-3.441736 19.17401468 -3.4491095 9.40410264 0 0 Z " fill="#57575F" transform="translate(297,178)"/>
<path d="M0 0 C1.65 0 3.3 0 5 0 C5 1.65 5 3.3 5 5 C4.34 5 3.68 5 3 5 C3.01160156 5.62648438 3.02320313 6.25296875 3.03515625 6.8984375 C3.04417969 7.71570313 3.05320313 8.53296875 3.0625 9.375 C3.07410156 10.18710937 3.08570313 10.99921875 3.09765625 11.8359375 C3 14 3 14 2 16 C1.84995027 17.3734635 1.75161994 18.7528526 1.68359375 20.1328125 C1.64169922 20.93847656 1.59980469 21.74414062 1.55664062 22.57421875 C1.49766602 23.83685547 1.49766602 23.83685547 1.4375 25.125 C1.39431641 25.97449219 1.35113281 26.82398438 1.30664062 27.69921875 C1.20045764 29.79928223 1.09971503 31.89961948 1 34 C1.66 34 2.32 34 3 34 C3 35.32 3 36.64 3 38 C2.01 38 1.02 38 0 38 C0 37.34 0 36.68 0 36 C-0.66 36 -1.32 36 -2 36 C-2 28.74 -2 21.48 -2 14 C-1.34 14 -0.68 14 0 14 C-0.020625 13.0925 -0.04125 12.185 -0.0625 11.25 C-0.0110245 8.57327412 0.2215017 6.53011948 1 4 C0.34 4 -0.32 4 -1 4 C-1.66 7.3 -2.32 10.6 -3 14 C-3.66 14 -4.32 14 -5 14 C-4.91852902 17.20932655 -4.80574254 20.41683439 -4.6875 23.625 C-4.66494141 24.52863281 -4.64238281 25.43226563 -4.61914062 26.36328125 C-4.40579863 31.67743637 -3.75449767 35.31809244 -1 40 C-1 40.66 -1 41.32 -1 42 C-0.34 42 0.32 42 1 42 C1 42.66 1 43.32 1 44 C0.01 44 -0.98 44 -2 44 C-2 43.34 -2 42.68 -2 42 C-2.66 42 -3.32 42 -4 42 C-4 41.34 -4 40.68 -4 40 C-4.66 40 -5.32 40 -6 40 C-6 38.68 -6 37.36 -6 36 C-6.66 36 -7.32 36 -8 36 C-8 28.08 -8 20.16 -8 12 C-7.34 12 -6.68 12 -6 12 C-5.896875 11.278125 -5.79375 10.55625 -5.6875 9.8125 C-4.93206053 6.72206579 -3.84468685 4.58256159 -2 2 C-1.34 2 -0.68 2 0 2 C0 1.34 0 0.68 0 0 Z " fill="#B5B7C7" transform="translate(138,290)"/>
<path d="M0 0 C0.66 0 1.32 0 2 0 C3.31223496 3.93670488 2.24296256 6.12488144 1 10 C0.34 10 -0.32 10 -1 10 C-1 17.26 -1 24.52 -1 32 C-0.34 32 0.32 32 1 32 C1 32.66 1 33.32 1 34 C1.99 34 2.98 34 4 34 C4 35.32 4 36.64 4 38 C5.32 38 6.64 38 8 38 C8 38.66 8 39.32 8 40 C14.6 40 21.2 40 28 40 C28 39.34 28 38.68 28 38 C28.66 38 29.32 38 30 38 C30 39.98 30 41.96 30 44 C25.07262981 45.97094808 21.21979128 46.1799928 16 46 C16 45.34 16 44.68 16 44 C14.02 44 12.04 44 10 44 C10 43.34 10 42.68 10 42 C8.68 42 7.36 42 6 42 C6 41.34 6 40.68 6 40 C4.68 40 3.36 40 2 40 C2 39.34 2 38.68 2 38 C1.34 38 0.68 38 0 38 C-3.81400972 31.57324347 -4.52964107 26.89973297 -4.25 19.5 C-4.23195312 18.5821875 -4.21390625 17.664375 -4.1953125 16.71875 C-4.14863102 14.47803908 -4.08318522 12.23960201 -4 10 C-3.34 10 -2.68 10 -2 10 C-2.04125 9.0925 -2.0825 8.185 -2.125 7.25 C-2.00468444 4.1217954 -1.6085292 2.61385994 0 0 Z " fill="#DCDDF8" transform="translate(137,294)"/>
<path d="M0 0 C1.32 0.33 2.64 0.66 4 1 C4 1.66 4 2.32 4 3 C4.66 3 5.32 3 6 3 C6 4.65 6 6.3 6 8 C6.66 8 7.32 8 8 8 C8 8.66 8 9.32 8 10 C8.66 10 9.32 10 10 10 C10 11.32 10 12.64 10 14 C10.66 14 11.32 14 12 14 C12 14.99 12 15.98 12 17 C12.66 17 13.32 17 14 17 C14 17.66 14 18.32 14 19 C14.66 19 15.32 19 16 19 C16 20.32 16 21.64 16 23 C16.66 23 17.32 23 18 23 C19.4606285 25.64738916 20 26.89448334 20 30 C20.66 30 21.32 30 22 30 C22 30.66 22 31.32 22 32 C22.66 32 23.32 32 24 32 C24 33.32 24 34.64 24 36 C24.66 36 25.32 36 26 36 C26 36.66 26 37.32 26 38 C26.66 38 27.32 38 28 38 C28 39.32 28 40.64 28 42 C28.66 42 29.32 42 30 42 C30 42.66 30 43.32 30 44 C30.66 44 31.32 44 32 44 C32 44.66 32 45.32 32 46 C32.66 46 33.32 46 34 46 C34 46.66 34 47.32 34 48 C34.66 48 35.32 48 36 48 C36 48.66 36 49.32 36 50 C36.66 50 37.32 50 38 50 C38 51.32 38 52.64 38 54 C38.66 54 39.32 54 40 54 C40 54.66 40 55.32 40 56 C40.66 56 41.32 56 42 56 C42 56.66 42 57.32 42 58 C42.66 58 43.32 58 44 58 C44 58.66 44 59.32 44 60 C42.68 60 41.36 60 40 60 C40 59.34 40 58.68 40 58 C39.34 58 38.68 58 38 58 C38 57.34 38 56.68 38 56 C37.34 56 36.68 56 36 56 C36 54.68 36 53.36 36 52 C35.34 52 34.68 52 34 52 C34 51.34 34 50.68 34 50 C33.34 50 32.68 50 32 50 C32 49.34 32 48.68 32 48 C31.34 48 30.68 48 30 48 C30 47.34 30 46.68 30 46 C29.34 46 28.68 46 28 46 C28 45.34 28 44.68 28 44 C27.34 44 26.68 44 26 44 C25.34 42.02 24.68 40.04 24 38 C23.34 38 22.68 38 22 38 C22 37.34 22 36.68 22 36 C21.34 36 20.68 36 20 36 C20 34.68 20 33.36 20 32 C19.34 32 18.68 32 18 32 C16 29 16 29 16 25 C14.68 24.67 13.36 24.34 12 24 C12 22.35 12 20.7 12 19 C11.34 19 10.68 19 10 19 C10 17.68 10 16.36 10 15 C9.360625 14.731875 8.72125 14.46375 8.0625 14.1875 C6 13 6 13 5 10 C4.34 10 3.68 10 3 10 C0 3.375 0 3.375 0 0 Z " fill="#6F6F79" transform="translate(278,248)"/>
<path d="M0 0 C5.28 0 10.56 0 16 0 C16 1.98 16 3.96 16 6 C15.34 6 14.68 6 14 6 C14 6.66 14 7.32 14 8 C12.68 8 11.36 8 10 8 C10 8.66 10 9.32 10 10 C9.34 10 8.68 10 8 10 C8 10.66 8 11.32 8 12 C7.34 12 6.68 12 6 12 C6 12.66 6 13.32 6 14 C4.68 14 3.36 14 2 14 C2 14.66 2 15.32 2 16 C0.68 16 -0.64 16 -2 16 C-2 16.66 -2 17.32 -2 18 C-3.32 18 -4.64 18 -6 18 C-6 17.34 -6 16.68 -6 16 C-5.34 16 -4.68 16 -4 16 C-4 14.68 -4 13.36 -4 12 C-3.34 12 -2.68 12 -2 12 C-2 11.01 -2 10.02 -2 9 C-1.34 9 -0.68 9 0 9 C0 6.03 0 3.06 0 0 Z " fill="#425BF2" transform="translate(185,316)"/>
<path d="M0 0 C0.99 0 1.98 0 3 0 C3 9.9 3 19.8 3 30 C2.34 30 1.68 30 1 30 C1 43.53 1 57.06 1 71 C0.34 71 -0.32 71 -1 71 C-1.02314078 62.03806296 -1.04092397 53.07613616 -1.05181217 44.1141758 C-1.05703719 39.95305961 -1.06412795 35.79196382 -1.07543945 31.63085938 C-1.08628184 27.61734185 -1.09227972 23.60384399 -1.09487724 19.59031296 C-1.09672905 18.05686509 -1.100345 16.52341832 -1.10573006 14.98997879 C-1.1129584 12.84697368 -1.11399018 10.70405044 -1.11352539 8.56103516 C-1.115746 7.33969879 -1.11796661 6.11836243 -1.12025452 4.86001587 C-1 2 -1 2 0 0 Z " fill="#5B5B66" transform="translate(168,207)"/>
<path d="M0 0 C3.3 0 6.6 0 10 0 C10 1.32 10 2.64 10 4 C10.66 4 11.32 4 12 4 C12 5.98 12 7.96 12 10 C11.34 10 10.68 10 10 10 C10 10.66 10 11.32 10 12 C9.34 12 8.68 12 8 12 C8 12.66 8 13.32 8 14 C5.36 14 2.72 14 0 14 C0 13.34 0 12.68 0 12 C-0.66 12 -1.32 12 -2 12 C-2 8.7 -2 5.4 -2 2 C-1.34 2 -0.68 2 0 2 C0 1.34 0 0.68 0 0 Z " fill="#3A55F8" transform="translate(481,102)"/>
<path d="M0 0 C0 0.66 0 1.32 0 2 C2.97 2.495 2.97 2.495 6 3 C5.01 3.66 4.02 4.32 3 5 C3.33 5.99 3.66 6.98 4 8 C-0.455 7.01 -0.455 7.01 -5 6 C-4.98839844 6.84304688 -4.97679687 7.68609375 -4.96484375 8.5546875 C-4.95130859 10.19824219 -4.95130859 10.19824219 -4.9375 11.875 C-4.92589844 12.96554687 -4.91429687 14.05609375 -4.90234375 15.1796875 C-5 18 -5 18 -6 20 C-6.66 20 -7.32 20 -8 20 C-8 21.32 -8 22.64 -8 24 C-7.01 24 -6.02 24 -5 24 C-5 24.66 -5 25.32 -5 26 C-5.99 26 -6.98 26 -8 26 C-8 26.66 -8 27.32 -8 28 C-8.66 28 -9.32 28 -10 28 C-10 27.34 -10 26.68 -10 26 C-10.66 26 -11.32 26 -12 26 C-12 25.34 -12 24.68 -12 24 C-12.66 24 -13.32 24 -14 24 C-14 22.02 -14 20.04 -14 18 C-12.02 18 -10.04 18 -8 18 C-8 16.68 -8 15.36 -8 14 C-8.66 14 -9.32 14 -10 14 C-9.67 12.02 -9.34 10.04 -9 8 C-9.99 8 -10.98 8 -12 8 C-11.67 7.01 -11.34 6.02 -11 5 C-7.9375 3.8125 -7.9375 3.8125 -5 3 C-5.99 2.34 -6.98 1.68 -8 1 C-2.25 0 -2.25 0 0 0 Z " fill="#D8DCFD" transform="translate(163,292)"/>
<path d="M0 0 C0.66 0 1.32 0 2 0 C2 1.32 2 2.64 2 4 C1.34 4 0.68 4 0 4 C0 5.32 0 6.64 0 8 C-0.66 8 -1.32 8 -2 8 C-2 8.66 -2 9.32 -2 10 C-2.66 10 -3.32 10 -4 10 C-4 10.99 -4 11.98 -4 13 C-4.66 13 -5.32 13 -6 13 C-5.87625 14.051875 -5.87625 14.051875 -5.75 15.125 C-6.08446819 18.97138418 -7.63496961 21.00893216 -10 24 C-10.66 24 -11.32 24 -12 24 C-12 24.66 -12 25.32 -12 26 C-12.66 26 -13.32 26 -14 26 C-14 26.66 -14 27.32 -14 28 C-14.66 28 -15.32 28 -16 28 C-16 29.32 -16 30.64 -16 32 C-16.66 32 -17.32 32 -18 32 C-18 32.66 -18 33.32 -18 34 C-18.66 34 -19.32 34 -20 34 C-20 35.32 -20 36.64 -20 38 C-20.66 38 -21.32 38 -22 38 C-22 38.66 -22 39.32 -22 40 C-22.66 40 -23.32 40 -24 40 C-24 40.66 -24 41.32 -24 42 C-24.66 42 -25.32 42 -26 42 C-26 42.66 -26 43.32 -26 44 C-26.66 44 -27.32 44 -28 44 C-28 42.68 -28 41.36 -28 40 C-27.34 40 -26.68 40 -26 40 C-26 39.34 -26 38.68 -26 38 C-25.34 38 -24.68 38 -24 38 C-24 36.68 -24 35.36 -24 34 C-23.34 34 -22.68 34 -22 34 C-22 33.34 -22 32.68 -22 32 C-21.34 32 -20.68 32 -20 32 C-20 31.34 -20 30.68 -20 30 C-19.34 30 -18.68 30 -18 30 C-18 28.68 -18 27.36 -18 26 C-17.34 26 -16.68 26 -16 26 C-16 25.34 -16 24.68 -16 24 C-15.34 24 -14.68 24 -14 24 C-14 22.68 -14 21.36 -14 20 C-13.34 20 -12.68 20 -12 20 C-12 19.01 -12 18.02 -12 17 C-11.34 17 -10.68 17 -10 17 C-10 16.01 -10 15.02 -10 14 C-9.34 14 -8.68 14 -8 14 C-8 13.01 -8 12.02 -8 11 C-7.34 11 -6.68 11 -6 11 C-6 10.01 -6 9.02 -6 8 C-5.34 8 -4.68 8 -4 8 C-4 7.34 -4 6.68 -4 6 C-3.34 6 -2.68 6 -2 6 C-2 4.68 -2 3.36 -2 2 C-1.34 2 -0.68 2 0 2 C0 1.34 0 0.68 0 0 Z " fill="#656773" transform="translate(217,254)"/>
<path d="M0 0 C27.06 0 54.12 0 82 0 C82 0.33 82 0.66 82 1 C66.23334586 2.32647465 50.43557389 2.11795406 34.6282959 2.06866455 C30.9403542 2.05828727 27.25240533 2.0538366 23.56445312 2.04882812 C16.37628289 2.03822235 9.18814754 2.02123978 2 2 C2 2.66 2 3.32 2 4 C1.34 4 0.68 4 0 4 C0 2.68 0 1.36 0 0 Z " fill="#B0B2BE" transform="translate(201,316)"/>
<path d="M0 0 C10.89 0 21.78 0 33 0 C33 0.66 33 1.32 33 2 C40.92 2 48.84 2 57 2 C57 2.33 57 2.66 57 3 C37.99513517 3.63299045 19.018319 4.17430231 0 4 C0 2.68 0 1.36 0 0 Z " fill="#7A7B87" transform="translate(175,199)"/>
<path d="M0 0 C1.32 0 2.64 0 4 0 C4 0.66 4 1.32 4 2 C5.98 2 7.96 2 10 2 C10 1.34 10 0.68 10 0 C11.91635217 -0.05423638 13.83314925 -0.09289963 15.75 -0.125 C17.35101563 -0.15980469 17.35101563 -0.15980469 18.984375 -0.1953125 C21.92470106 -0.00487687 23.52361878 0.47329896 26 2 C26 2.66 26 3.32 26 4 C27.98 4.66 29.96 5.32 32 6 C32 7.32 32 8.64 32 10 C31.34 10 30.68 10 30 10 C30 9.34 30 8.68 30 8 C27.36 7.34 24.72 6.68 22 6 C22 5.34 22 4.68 22 4 C21.32453125 4.16757812 20.6490625 4.33515625 19.953125 4.5078125 C19.06109375 4.71148437 18.1690625 4.91515625 17.25 5.125 C16.36828125 5.33382813 15.4865625 5.54265625 14.578125 5.7578125 C11.67124507 6.03088304 10.43338652 5.53508028 8 4 C8 4.66 8 5.32 8 6 C6.68 6 5.36 6 4 6 C4 6.66 4 7.32 4 8 C3.34 8 2.68 8 2 8 C2 8.66 2 9.32 2 10 C1.34 10 0.68 10 0 10 C0 9.01 0 8.02 0 7 C0.66 7 1.32 7 2 7 C2 5.35 2 3.7 2 2 C1.34 2 0.68 2 0 2 C0 1.34 0 0.68 0 0 Z " fill="#8087C6" transform="translate(141,288)"/>
<path d="M0 0 C0.66 0 1.32 0 2 0 C2 1.32 2 2.64 2 4 C1.34 4 0.68 4 0 4 C0 4.66 0 5.32 0 6 C-0.99 6 -1.98 6 -3 6 C-3.33 7.98 -3.66 9.96 -4 12 C-10.6 12 -17.2 12 -24 12 C-24 11.34 -24 10.68 -24 10 C-25.32 10 -26.64 10 -28 10 C-28 8.68 -28 7.36 -28 6 C-27.34 6 -26.68 6 -26 6 C-26 6.66 -26 7.32 -26 8 C-24.68 8 -23.36 8 -22 8 C-22 8.66 -22 9.32 -22 10 C-18.7 10 -15.4 10 -12 10 C-12 8.68 -12 7.36 -12 6 C-4.71428571 1.42857143 -4.71428571 1.42857143 0 2 C0 1.34 0 0.68 0 0 Z " fill="#CDD4F8" transform="translate(169,322)"/>
<path d="M0 0 C1.32 0 2.64 0 4 0 C4.05062418 7.63546931 4.08570152 15.2708955 4.10986328 22.90649414 C4.11993368 25.50514341 4.13359071 28.10378131 4.15087891 30.70239258 C4.17508139 34.43313397 4.18647266 38.16372581 4.1953125 41.89453125 C4.20563507 43.06023148 4.21595764 44.2259317 4.22659302 45.42695618 C4.22674408 46.50785019 4.22689514 47.5887442 4.22705078 48.70239258 C4.231492 49.65503494 4.23593323 50.60767731 4.24050903 51.58918762 C4 54 4 54 2 57 C2 39.84 2 22.68 2 5 C1.34 5 0.68 5 0 5 C0 3.35 0 1.7 0 0 Z " fill="#292A2C" transform="translate(328,239)"/>
<path d="M0 0 C1.65 0 3.3 0 5 0 C5 1.65 5 3.3 5 5 C5.66 5 6.32 5 7 5 C6.67 8.63 6.34 12.26 6 16 C4.35 16.33 2.7 16.66 1 17 C-1.98514628 12.89542386 -2.2954439 10.02254631 -2 5 C-1.34 5 -0.68 5 0 5 C0 3.35 0 1.7 0 0 Z " fill="#EDE5DD" transform="translate(353,257)"/>
<path d="M0 0 C17.16 0 34.32 0 52 0 C52 1.32 52 2.64 52 4 C51.34 4 50.68 4 50 4 C50 3.34 50 2.68 50 2 C33.17 2 16.34 2 -1 2 C-0.67 1.34 -0.34 0.68 0 0 Z " fill="#C8C9D6" transform="translate(258,312)"/>
<path d="M0 0 C0.33 0 0.66 0 1 0 C1 7.59 1 15.18 1 23 C1.66 23 2.32 23 3 23 C3 24.98 3 26.96 3 29 C3.66 29 4.32 29 5 29 C5 29.66 5 30.32 5 31 C4.34 31 3.68 31 3 31 C3 31.66 3 32.32 3 33 C2.34 33 1.68 33 1 33 C0.67 31.68 0.34 30.36 0 29 C-0.66 29 -1.32 29 -2 29 C-3.441736 19.17401468 -3.4491095 9.40410264 0 0 Z " fill="#787880" transform="translate(297,178)"/>
<path d="M0 0 C4.62 0 9.24 0 14 0 C14 0.66 14 1.32 14 2 C10.04 2 6.08 2 2 2 C1.34 3.32 0.68 4.64 0 6 C-4.28571429 9 -4.28571429 9 -7 9 C-7.11138159 14.45769811 -6.91657981 19.61509359 -6 25 C-6.66 25 -7.32 25 -8 25 C-8 24.01 -8 23.02 -8 22 C-8.66 22 -9.32 22 -10 22 C-10 18.04 -10 14.08 -10 10 C-9.34 10 -8.68 10 -8 10 C-8 8.68 -8 7.36 -8 6 C-7.34 6 -6.68 6 -6 6 C-6 5.34 -6 4.68 -6 4 C-5.34 4 -4.68 4 -4 4 C-4 3.34 -4 2.68 -4 2 C-2.68 2 -1.36 2 0 2 C0 1.34 0 0.68 0 0 Z " fill="#435AF0" transform="translate(92,453)"/>
<path d="M0 0 C1.32 0 2.64 0 4 0 C4 1.32 4 2.64 4 4 C5.32 4 6.64 4 8 4 C8 7.96 8 11.92 8 16 C7.34 16 6.68 16 6 16 C6 18.31 6 20.62 6 23 C4.68 23.33 3.36 23.66 2 24 C2 22.02 2 20.04 2 18 C2.66 18 3.32 18 4 18 C4 17.34 4 16.68 4 16 C3.34 16 2.68 16 2 16 C2.66 13.36 3.32 10.72 4 8 C3.34 8 2.68 8 2 8 C2 6.02 2 4.04 2 2 C1.34 2 0.68 2 0 2 C0 1.34 0 0.68 0 0 Z " fill="#AEAFC3" transform="translate(179,300)"/>
<path d="M0 0 C0.66 0 1.32 0 2 0 C3.31223496 3.93670488 2.24296256 6.12488144 1 10 C0.34 10 -0.32 10 -1 10 C-1 17.26 -1 24.52 -1 32 C-0.34 32 0.32 32 1 32 C1 33.32 1 34.64 1 36 C-2 35 -2 35 -3.1796875 33.08203125 C-4.37121343 28.60529811 -4.20969107 24.29664878 -4.125 19.6875 C-4.11597656 18.75615234 -4.10695312 17.82480469 -4.09765625 16.86523438 C-4.07418263 14.5765564 -4.04134729 12.28841328 -4 10 C-3.34 10 -2.68 10 -2 10 C-2.04125 9.0925 -2.0825 8.185 -2.125 7.25 C-2.00468444 4.1217954 -1.6085292 2.61385994 0 0 Z " fill="#E9EAFC" transform="translate(137,294)"/>
<path d="M0 0 C6.6 0 13.2 0 20 0 C20 0.66 20 1.32 20 2 C14.06 1.67 8.12 1.34 2 1 C2 1.66 2 2.32 2 3 C0.68 3 -0.64 3 -2 3 C-2 3.66 -2 4.32 -2 5 C-3.52834853 6.23568605 -5.05765382 7.47027491 -6.59765625 8.69140625 C-8.34023014 10.31748495 -8.82474344 11.63403644 -9 14 C-10.65 14.33 -12.3 14.66 -14 15 C-14 20.94 -14 26.88 -14 33 C-16 31 -16 31 -16.23046875 28.609375 C-16.155862 23.64463479 -16.05443055 18.87674129 -15 14 C-14.34 14 -13.68 14 -13 14 C-12.67 12.68 -12.34 11.36 -12 10 C-11.34 10 -10.68 10 -10 10 C-10 9.34 -10 8.68 -10 8 C-9.34 8 -8.68 8 -8 8 C-8 7.34 -8 6.68 -8 6 C-7.34 6 -6.68 6 -6 6 C-6 5.34 -6 4.68 -6 4 C-5.34 4 -4.68 4 -4 4 C-4 3.34 -4 2.68 -4 2 C-2.68 2 -1.36 2 0 2 C0 1.34 0 0.68 0 0 Z " fill="#7F8FF4" transform="translate(46,23)"/>
<path d="M0 0 C0.66 0 1.32 0 2 0 C2 0.66 2 1.32 2 2 C2.66 2 3.32 2 4 2 C4 2.66 4 3.32 4 4 C4.66 4 5.32 4 6 4 C6 5.32 6 6.64 6 8 C6.66 8 7.32 8 8 8 C8 8.66 8 9.32 8 10 C8.66 10 9.32 10 10 10 C10 10.66 10 11.32 10 12 C10.66 12 11.32 12 12 12 C12 12.66 12 13.32 12 14 C12.66 14 13.32 14 14 14 C14 14.66 14 15.32 14 16 C14.66 16 15.32 16 16 16 C16 17.32 16 18.64 16 20 C16.66 20 17.32 20 18 20 C18 20.66 18 21.32 18 22 C18.66 22 19.32 22 20 22 C20 22.66 20 23.32 20 24 C20.66 24 21.32 24 22 24 C22 24.66 22 25.32 22 26 C20.68 26 19.36 26 18 26 C18 25.34 18 24.68 18 24 C17.34 24 16.68 24 16 24 C16 23.34 16 22.68 16 22 C15.34 22 14.68 22 14 22 C14 20.68 14 19.36 14 18 C13.34 18 12.68 18 12 18 C12 17.34 12 16.68 12 16 C11.34 16 10.68 16 10 16 C10 15.34 10 14.68 10 14 C9.34 14 8.68 14 8 14 C8 13.34 8 12.68 8 12 C7.34 12 6.68 12 6 12 C6 11.34 6 10.68 6 10 C5.34 10 4.68 10 4 10 C3.34 8.02 2.68 6.04 2 4 C1.34 4 0.68 4 0 4 C0 2.68 0 1.36 0 0 Z " fill="#5C5D68" transform="translate(300,282)"/>
<path d="M0 0 C0.99 0 1.98 0 3 0 C8.28303624 6.29900475 7.32333374 16.22755427 7 24 C6.74735098 26.68766286 6.39583497 29.32811397 6 32 C5.34 32 4.68 32 4 32 C4 30.02 4 28.04 4 26 C3.67 26 3.34 26 3 26 C2.95101563 24.91460937 2.90203125 23.82921875 2.8515625 22.7109375 C2.77648014 21.26560216 2.70093472 19.82029081 2.625 18.375 C2.57859375 17.30572266 2.57859375 17.30572266 2.53125 16.21484375 C2.28822937 11.79996899 1.47986844 8.1989763 0 4 C0 2.68 0 1.36 0 0 Z " fill="#777782" transform="translate(371,177)"/>
<path d="M0 0 C1.32 0 2.64 0 4 0 C4 0.66 4 1.32 4 2 C4.66 2 5.32 2 6 2 C6 2.66 6 3.32 6 4 C6.66 4 7.32 4 8 4 C8 4.66 8 5.32 8 6 C8.66 6 9.32 6 10 6 C10 6.66 10 7.32 10 8 C10.66 8 11.32 8 12 8 C12 8.66 12 9.32 12 10 C12.66 10 13.32 10 14 10 C14 10.66 14 11.32 14 12 C14.66 12 15.32 12 16 12 C16 12.66 16 13.32 16 14 C16.66 14 17.32 14 18 14 C18 14.66 18 15.32 18 16 C18.66 16 19.32 16 20 16 C20 16.66 20 17.32 20 18 C20.66 18 21.32 18 22 18 C22 18.66 22 19.32 22 20 C22.66 20 23.32 20 24 20 C24 20.66 24 21.32 24 22 C22.68 22 21.36 22 20 22 C20 21.34 20 20.68 20 20 C19.34 20 18.68 20 18 20 C18 19.34 18 18.68 18 18 C17.34 18 16.68 18 16 18 C16 17.34 16 16.68 16 16 C15.34 16 14.68 16 14 16 C14 15.34 14 14.68 14 14 C13.34 14 12.68 14 12 14 C12 13.34 12 12.68 12 12 C11.34 12 10.68 12 10 12 C10 11.34 10 10.68 10 10 C9.34 10 8.68 10 8 10 C8 9.34 8 8.68 8 8 C7.34 8 6.68 8 6 8 C6 7.34 6 6.68 6 6 C5.34 6 4.68 6 4 6 C4 5.34 4 4.68 4 4 C3.34 4 2.68 4 2 4 C2 3.34 2 2.68 2 2 C1.34 2 0.68 2 0 2 C0 1.34 0 0.68 0 0 Z " fill="#50515E" transform="translate(173,205)"/>
<path d="M0 0 C0.66 0 1.32 0 2 0 C2 3.3 2 6.6 2 10 C1.34 10 0.68 10 0 10 C0 11.98 0 13.96 0 16 C-0.66 16 -1.32 16 -2 16 C-2 16.66 -2 17.32 -2 18 C-2.66 18 -3.32 18 -4 18 C-4 19.32 -4 20.64 -4 22 C-5.32 22 -6.64 22 -8 22 C-8 20.02 -8 18.04 -8 16 C-6.68 16 -5.36 16 -4 16 C-4 14.02 -4 12.04 -4 10 C-3.34 10 -2.68 10 -2 10 C-2 8.02 -2 6.04 -2 4 C-1.34 4 -0.68 4 0 4 C0 2.68 0 1.36 0 0 Z " fill="#D7DCF5" transform="translate(177,312)"/>
<path d="M0 0 C1.32 0 2.64 0 4 0 C4 0.66 4 1.32 4 2 C4.66 2 5.32 2 6 2 C6 2.66 6 3.32 6 4 C6.66 4 7.32 4 8 4 C8 4.66 8 5.32 8 6 C8.66 6 9.32 6 10 6 C10 6.66 10 7.32 10 8 C10.66 8 11.32 8 12 8 C12 8.66 12 9.32 12 10 C8.33694766 10.74926071 5.57644848 11.2380014 2 10 C2 9.34 2 8.68 2 8 C1.34 8 0.68 8 0 8 C0 7.34 0 6.68 0 6 C-0.66 6 -1.32 6 -2 6 C-2 4.68 -2 3.36 -2 2 C-1.34 2 -0.68 2 0 2 C0 1.34 0 0.68 0 0 Z " fill="#494A50" transform="translate(318,189)"/>
<path d="M0 0 C1.98 0 3.96 0 6 0 C5.125 4.75 5.125 4.75 4 7 C3.34 7 2.68 7 2 7 C2 8.32 2 9.64 2 11 C-0.64 11 -3.28 11 -6 11 C-6 9.68 -6 8.36 -6 7 C-5.34 7 -4.68 7 -4 7 C-4 6.01 -4 5.02 -4 4 C-3.34 4 -2.68 4 -2 4 C-2 3.34 -2 2.68 -2 2 C-1.34 2 -0.68 2 0 2 C0 1.34 0 0.68 0 0 Z " fill="#525358" transform="translate(366,152)"/>
<path d="M0 0 C0.66 0 1.32 0 2 0 C2 0.66 2 1.32 2 2 C2.66 2 3.32 2 4 2 C4 2.99 4 3.98 4 5 C5.32 5.33 6.64 5.66 8 6 C8 6.66 8 7.32 8 8 C8.66 8 9.32 8 10 8 C10 8.66 10 9.32 10 10 C10.66 10 11.32 10 12 10 C12 10.66 12 11.32 12 12 C13.32 12 14.64 12 16 12 C16 12.66 16 13.32 16 14 C16.66 14 17.32 14 18 14 C18 14.66 18 15.32 18 16 C17.34 16 16.68 16 16 16 C16 16.66 16 17.32 16 18 C15.34 18 14.68 18 14 18 C14 17.34 14 16.68 14 16 C13.34 16 12.68 16 12 16 C12 15.34 12 14.68 12 14 C11.34 14 10.68 14 10 14 C10 13.34 10 12.68 10 12 C9.34 12 8.68 12 8 12 C8 11.34 8 10.68 8 10 C7.34 10 6.68 10 6 10 C6 9.34 6 8.68 6 8 C3.03 7.505 3.03 7.505 0 7 C0 6.01 0 5.02 0 4 C-0.66 4 -1.32 4 -2 4 C-2 3.34 -2 2.68 -2 2 C-1.34 2 -0.68 2 0 2 C0 1.34 0 0.68 0 0 Z " fill="#7A7B86" transform="translate(197,225)"/>
<path d="M0 0 C2.64 0.33 5.28 0.66 8 1 C8 1.66 8 2.32 8 3 C9.32 3 10.64 3 12 3 C12 3.66 12 4.32 12 5 C18.6 5 25.2 5 32 5 C32 5.66 32 6.32 32 7 C28.16692831 7.11719175 24.33432392 7.18758077 20.5 7.25 C19.42234375 7.28351563 18.3446875 7.31703125 17.234375 7.3515625 C10.30419508 7.43607689 5.92364015 6.65195291 0 3 C0 2.01 0 1.02 0 0 Z " fill="#777882" transform="translate(312,226)"/>
<path d="M0 0 C1.5625 1.625 1.5625 1.625 3 4 C2.6875 7.25 2.6875 7.25 2 10 C1.34 10 0.68 10 0 10 C0 11.32 0 12.64 0 14 C0.99 14 1.98 14 3 14 C3 14.66 3 15.32 3 16 C2.01 16 1.02 16 0 16 C0 16.66 0 17.32 0 18 C-0.66 18 -1.32 18 -2 18 C-2 17.34 -2 16.68 -2 16 C-2.66 16 -3.32 16 -4 16 C-4 15.34 -4 14.68 -4 14 C-4.66 14 -5.32 14 -6 14 C-6 12.02 -6 10.04 -6 8 C-4.02 8 -2.04 8 0 8 C0 6.68 0 5.36 0 4 C-0.66 4 -1.32 4 -2 4 C-2 3.34 -2 2.68 -2 2 C-1.34 2 -0.68 2 0 2 C0 1.34 0 0.68 0 0 Z " fill="#AEADBD" transform="translate(155,302)"/>
<path d="M0 0 C-0.99 0 -1.98 0 -3 0 C-3 0.66 -3 1.32 -3 2 C-0.36 2 2.28 2 5 2 C5 2.66 5 3.32 5 4 C5.66 4 6.32 4 7 4 C7 4.66 7 5.32 7 6 C1.72 5.34 -3.56 4.68 -9 4 C-9 4.66 -9 5.32 -9 6 C-10.98 6 -12.96 6 -15 6 C-15 4.68 -15 3.36 -15 2 C-13.68 2 -12.36 2 -11 2 C-11 1.34 -11 0.68 -11 0 C-3.57142857 -1.28571429 -3.57142857 -1.28571429 0 0 Z " fill="#A5A9C7" transform="translate(160,284)"/>
<path d="M0 0 C3.45803731 -0.11795981 6.91554557 -0.18782752 10.375 -0.25 C11.34050781 -0.28351563 12.30601562 -0.31703125 13.30078125 -0.3515625 C22.01685562 -0.46855679 28.34089935 2.1279838 36 6 C36 6.66 36 7.32 36 8 C34.02 8 32.04 8 30 8 C30 7.34 30 6.68 30 6 C29.175 5.896875 28.35 5.79375 27.5 5.6875 C24 5 24 5 20.625 3.5 C14.17771813 0.90844552 6.85461567 1.24124254 0 1 C0 0.67 0 0.34 0 0 Z " fill="#4B4C55" transform="translate(320,151)"/>
<path d="M0 0 C0 0.66 0 1.32 0 2 C-2.64 2 -5.28 2 -8 2 C-8 2.33 -8 2.66 -8 3 C-9.41152344 3.09087891 -9.41152344 3.09087891 -10.8515625 3.18359375 C-12.09679687 3.26738281 -13.34203125 3.35117188 -14.625 3.4375 C-15.85476563 3.51871094 -17.08453125 3.59992188 -18.3515625 3.68359375 C-21.61532388 3.96663944 -24.77943859 4.41038953 -28 5 C-28.66 4.01 -29.32 3.02 -30 2 C-29.34 2 -28.68 2 -28 2 C-28 1.34 -28 0.68 -28 0 C-18.63293695 -1.44108662 -9.36706305 -1.44108662 0 0 Z " fill="#7E7F87" transform="translate(344,150)"/>
<path d="M0 0 C0.99 0 1.98 0 3 0 C2.67 1.98 2.34 3.96 2 6 C1.34 6 0.68 6 0 6 C0 6.66 0 7.32 0 8 C0.66 8 1.32 8 2 8 C1.67 8.99 1.34 9.98 1 11 C-0.65 11.33 -2.3 11.66 -4 12 C-4 12.66 -4 13.32 -4 14 C-5.98 14.33 -7.96 14.66 -10 15 C-10 14.01 -10 13.02 -10 12 C-9.34 12 -8.68 12 -8 12 C-8 11.34 -8 10.68 -8 10 C-7.34 10 -6.68 10 -6 10 C-6 9.34 -6 8.68 -6 8 C-5.34 8 -4.68 8 -4 8 C-4 7.34 -4 6.68 -4 6 C-3.34 6 -2.68 6 -2 6 C-2 5.34 -2 4.68 -2 4 C-1.34 4 -0.68 4 0 4 C0 2.68 0 1.36 0 0 Z " fill="#B6B8CC" transform="translate(179,326)"/>
<path d="M0 0 C1.91635217 -0.05423638 3.83314925 -0.09289963 5.75 -0.125 C7.35101563 -0.15980469 7.35101563 -0.15980469 8.984375 -0.1953125 C11.92470106 -0.00487687 13.52361878 0.47329896 16 2 C16 2.66 16 3.32 16 4 C17.98 4.66 19.96 5.32 22 6 C22 7.32 22 8.64 22 10 C21.34 10 20.68 10 20 10 C20 9.34 20 8.68 20 8 C17.36 7.34 14.72 6.68 12 6 C12 5.34 12 4.68 12 4 C10.68 4 9.36 4 8 4 C8 3.34 8 2.68 8 2 C5.36 2 2.72 2 0 2 C0 1.34 0 0.68 0 0 Z " fill="#6671CA" transform="translate(151,288)"/>
<path d="M0 0 C5.94 0 11.88 0 18 0 C18 1.98 18 3.96 18 6 C17.01 6 16.02 6 15 6 C15 6.66 15 7.32 15 8 C13.68 8 12.36 8 11 8 C11 8.66 11 9.32 11 10 C10.01 10 9.02 10 8 10 C8 9.01 8 8.02 8 7 C11 4.8125 11 4.8125 14 3 C9.38 2.34 4.76 1.68 0 1 C0 0.67 0 0.34 0 0 Z " fill="#475BF0" transform="translate(360,294)"/>
<path d="M0 0 C1.32 0 2.64 0 4 0 C4 0.66 4 1.32 4 2 C3.34 2 2.68 2 2 2 C2 3.98 2 5.96 2 8 C3.32 7.67 4.64 7.34 6 7 C6 7.66 6 8.32 6 9 C5.34 9 4.68 9 4 9 C3.67 9.99 3.34 10.98 3 12 C3 11.34 3 10.68 3 10 C2.01 10 1.02 10 0 10 C0 11.32 0 12.64 0 14 C-0.66 14 -1.32 14 -2 14 C-2 14.66 -2 15.32 -2 16 C-2.66 16 -3.32 16 -4 16 C-4 16.66 -4 17.32 -4 18 C-4.66 18 -5.32 18 -6 18 C-6 16.68 -6 15.36 -6 14 C-5.34 14 -4.68 14 -4 14 C-4 13.34 -4 12.68 -4 12 C-3.34 12 -2.68 12 -2 12 C-2 10.02 -2 8.04 -2 6 C-1.34 6 -0.68 6 0 6 C0 4.02 0 2.04 0 0 Z " fill="#9494B2" transform="translate(179,316)"/>
<path d="M0 0 C0.33 0 0.66 0 1 0 C1 6.6 1 13.2 1 20 C1.99 20.33 2.98 20.66 4 21 C5.1875 24.5625 5.1875 24.5625 6 28 C6.66 28 7.32 28 8 28 C8 28.66 8 29.32 8 30 C7.01 30 6.02 30 5 30 C5 29.34 5 28.68 5 28 C4.34 28 3.68 28 3 28 C3 27.34 3 26.68 3 26 C2.34 26 1.68 26 1 26 C1 24.68 1 23.36 1 22 C0.34 22 -0.32 22 -1 22 C-0.67 14.74 -0.34 7.48 0 0 Z " fill="#A7A9B9" transform="translate(131,304)"/>
<path d="M0 0 C0.66 0 1.32 0 2 0 C2 1.32 2 2.64 2 4 C2.66 4 3.32 4 4 4 C5.4606285 6.64738916 6 7.89448334 6 11 C6.66 11 7.32 11 8 11 C8 11.66 8 12.32 8 13 C8.66 13 9.32 13 10 13 C10 13.66 10 14.32 10 15 C9.34 15 8.68 15 8 15 C8 15.66 8 16.32 8 17 C7.34 17 6.68 17 6 17 C6 15.68 6 14.36 6 13 C5.34 13 4.68 13 4 13 C2 10 2 10 2 6 C0.68 5.67 -0.64 5.34 -2 5 C-2 4.01 -2 3.02 -2 2 C-1.34 2 -0.68 2 0 2 C0 1.34 0 0.68 0 0 Z " fill="#6F6F7C" transform="translate(292,267)"/>
<path d="M0 0 C0.66 0 1.32 0 2 0 C2 0.66 2 1.32 2 2 C3.32 2 4.64 2 6 2 C6 2.66 6 3.32 6 4 C11.94 4 17.88 4 24 4 C24 4.66 24 5.32 24 6 C17.4 6 10.8 6 4 6 C4 5.34 4 4.68 4 4 C2.68 4 1.36 4 0 4 C0 2.68 0 1.36 0 0 Z " fill="#989CB4" transform="translate(141,328)"/>
<path d="M0 0 C1.32 0.66 2.64 1.32 4 2 C3.01 2.5259375 3.01 2.5259375 2 3.0625 C-0.41103961 4.96557142 -0.41103961 4.96557142 -0.25 8.6875 C-0.1675 9.780625 -0.085 10.87375 0 12 C-0.99 12.33 -1.98 12.66 -3 13 C-3.66 11.35 -4.32 9.7 -5 8 C-4.34 8 -3.68 8 -3 8 C-3 7.34 -3 6.68 -3 6 C-3.99 6 -4.98 6 -6 6 C-6 5.34 -6 4.68 -6 4 C-5.34 4 -4.68 4 -4 4 C-4 3.34 -4 2.68 -4 2 C-2.68 2 -1.36 2 0 2 C0 1.34 0 0.68 0 0 Z M-5 13 C-4.01 13.495 -4.01 13.495 -3 14 C-3.99 14.495 -3.99 14.495 -5 15 C-5 14.34 -5 13.68 -5 13 Z " fill="#DCDFFB" transform="translate(149,292)"/>
<path d="M0 0 C0.66 0 1.32 0 2 0 C2 1.32 2 2.64 2 4 C1.34 4 0.68 4 0 4 C0 5.32 0 6.64 0 8 C-0.66 8 -1.32 8 -2 8 C-2 8.66 -2 9.32 -2 10 C-2.66 10 -3.32 10 -4 10 C-4 10.99 -4 11.98 -4 13 C-4.66 13 -5.32 13 -6 13 C-6.12375 13.639375 -6.2475 14.27875 -6.375 14.9375 C-6.58125 15.618125 -6.7875 16.29875 -7 17 C-7.66 17.33 -8.32 17.66 -9 18 C-8.67 15.69 -8.34 13.38 -8 11 C-7.34 11 -6.68 11 -6 11 C-6 10.01 -6 9.02 -6 8 C-5.34 8 -4.68 8 -4 8 C-4 7.34 -4 6.68 -4 6 C-3.34 6 -2.68 6 -2 6 C-2 4.68 -2 3.36 -2 2 C-1.34 2 -0.68 2 0 2 C0 1.34 0 0.68 0 0 Z " fill="#5A5A66" transform="translate(217,254)"/>
<path d="M0 0 C9.24 0 18.48 0 28 0 C26.68 0.33 25.36 0.66 24 1 C24 1.66 24 2.32 24 3 C17.4 3 10.8 3 4 3 C4 2.34 4 1.68 4 1 C2.68 0.67 1.36 0.34 0 0 Z " fill="#33343B" transform="translate(322,232)"/>
<path d="M0 0 C0.33 0 0.66 0 1 0 C1.08820927 3.16648655 1.1407905 6.33265092 1.1875 9.5 C1.22520508 10.8303125 1.22520508 10.8303125 1.26367188 12.1875 C1.32980166 18.18326702 0.44131875 22.51504238 -2 28 C-2.66 28 -3.32 28 -4 28 C-4.21278058 23.53160785 -3.59138085 20.17737474 -2 16 C-1.34 16 -0.68 16 0 16 C0 10.72 0 5.44 0 0 Z " fill="#42424A" transform="translate(375,187)"/>
<path d="M0 0 C1.32 0 2.64 0 4 0 C4 0.66 4 1.32 4 2 C5.32 2 6.64 2 8 2 C8 2.66 8 3.32 8 4 C9.98 4 11.96 4 14 4 C14 4.66 14 5.32 14 6 C15.65 6.33 17.3 6.66 19 7 C19 7.33 19 7.66 19 8 C16.03 8 13.06 8 10 8 C10 7.34 10 6.68 10 6 C8.68 6 7.36 6 6 6 C6 5.34 6 4.68 6 4 C5.01 4 4.02 4 3 4 C3 3.34 3 2.68 3 2 C2.01 2 1.02 2 0 2 C0 1.34 0 0.68 0 0 Z " fill="#797C8C" transform="translate(139,334)"/>
<path d="M0 0 C1.32 0 2.64 0 4 0 C4 6.6 4 13.2 4 20 C3.34 20.33 2.68 20.66 2 21 C2 15.72 2 10.44 2 5 C1.34 5 0.68 5 0 5 C0 3.35 0 1.7 0 0 Z " fill="#292A2E" transform="translate(328,239)"/>
<path d="M0 0 C0 0.66 0 1.32 0 2 C0.66 2 1.32 2 2 2 C2 2.66 2 3.32 2 4 C1.01 4 0.02 4 -1 4 C-0.67 5.32 -0.34 6.64 0 8 C-0.66 8 -1.32 8 -2 8 C-2 7.34 -2 6.68 -2 6 C-3.32 6 -4.64 6 -6 6 C-6 5.34 -6 4.68 -6 4 C-6.66 4 -7.32 4 -8 4 C-8 3.34 -8 2.68 -8 2 C-8.66 2 -9.32 2 -10 2 C-10 1.34 -10 0.68 -10 0 C-6.42355152 -1.2380014 -3.66305234 -0.74926071 0 0 Z " fill="#3D3E42" transform="translate(332,199)"/>
<path d="M0 0 C1.32 0.66 2.64 1.32 4 2 C4 3.98 4 5.96 4 8 C2.68 7.34 1.36 6.68 0 6 C-0.680625 6.99 -0.680625 6.99 -1.375 8 C-1.91125 8.66 -2.4475 9.32 -3 10 C-3.66 10 -4.32 10 -5 10 C-5 10.66 -5 11.32 -5 12 C-5.99 12 -6.98 12 -8 12 C-8 11.34 -8 10.68 -8 10 C-7.34 10 -6.68 10 -6 10 C-6 9.34 -6 8.68 -6 8 C-5.34 8 -4.68 8 -4 8 C-4 6.68 -4 5.36 -4 4 C-3.01 4 -2.02 4 -1 4 C-0.67 2.68 -0.34 1.36 0 0 Z " fill="#4D4D51" transform="translate(348,183)"/>
<path d="M0 0 C1.32 0.33 2.64 0.66 4 1 C3.566875 2.12148438 3.566875 2.12148438 3.125 3.265625 C2.568125 4.74289062 2.568125 4.74289062 2 6.25 C1.62875 7.22453125 1.2575 8.1990625 0.875 9.203125 C-0.19905238 12.14783138 -0.19905238 12.14783138 0 16 C-0.66 16 -1.32 16 -2 16 C-2 16.66 -2 17.32 -2 18 C-3.32 18 -4.64 18 -6 18 C-6 17.34 -6 16.68 -6 16 C-5.34 16 -4.68 16 -4 16 C-4 14.68 -4 13.36 -4 12 C-3.34 12 -2.68 12 -2 12 C-2 11.01 -2 10.02 -2 9 C-1.34 9 -0.68 9 0 9 C0 6.03 0 3.06 0 0 Z " fill="#4354C4" transform="translate(185,316)"/>
<path d="M0 0 C2.64 0 5.28 0 8 0 C8 1.98 8 3.96 8 6 C5.69 6.33 3.38 6.66 1 7 C0.67 4.69 0.34 2.38 0 0 Z " fill="#374EE0" transform="translate(193,316)"/>
<path d="M0 0 C0.66 0 1.32 0 2 0 C4.4294516 3.6441774 4.16179575 5.71241272 4 10 C2.68 10.33 1.36 10.66 0 11 C0 10.01 0 9.02 0 8 C-0.66 8 -1.32 8 -2 8 C-2.20086443 4.28400809 -2.1519437 3.22791555 0 0 Z " fill="#EEBF5B" transform="translate(354,260)"/>
<path d="M0 0 C0.99 0 1.98 0 3 0 C3 4.29 3 8.58 3 13 C1.68 13.33 0.36 13.66 -1 14 C-1 12.02 -1 10.04 -1 8 C-0.34 8 0.32 8 1 8 C1 7.34 1 6.68 1 6 C0.34 6 -0.32 6 -1 6 C-0.67 4.02 -0.34 2.04 0 0 Z " fill="#D1D2EB" transform="translate(182,310)"/>
<path d="M0 0 C0.66 0 1.32 0 2 0 C2 0.99 2 1.98 2 3 C2.66 3 3.32 3 4 3 C4 2.01 4 1.02 4 0 C5.98 0 7.96 0 10 0 C10 0.66 10 1.32 10 2 C9.34 2 8.68 2 8 2 C8 2.66 8 3.32 8 4 C7.01 4.33 6.02 4.66 5 5 C4.67 5.99 4.34 6.98 4 8 C2.68 8 1.36 8 0 8 C0 5.36 0 2.72 0 0 Z " fill="#B1B5D5" transform="translate(173,294)"/>
<path d="M0 0 C1.32 0 2.64 0 4 0 C4 0.66 4 1.32 4 2 C4.66 2 5.32 2 6 2 C6 2.66 6 3.32 6 4 C7.32 4 8.64 4 10 4 C10 4.66 10 5.32 10 6 C10.66 6 11.32 6 12 6 C12 6.66 12 7.32 12 8 C12.66 8 13.32 8 14 8 C14 8.66 14 9.32 14 10 C12.68 10 11.36 10 10 10 C10 9.34 10 8.68 10 8 C8.02 7.34 6.04 6.68 4 6 C4 5.34 4 4.68 4 4 C3.34 4 2.68 4 2 4 C2 3.34 2 2.68 2 2 C1.34 2 0.68 2 0 2 C0 1.34 0 0.68 0 0 Z " fill="#5D5E67" transform="translate(213,241)"/>
<path d="M0 0 C6.6 0 13.2 0 20 0 C20 1.32 20 2.64 20 4 C19.34 4 18.68 4 18 4 C18 3.34 18 2.68 18 2 C12.06 2 6.12 2 0 2 C0 1.34 0 0.68 0 0 Z " fill="#9B9CA9" transform="translate(290,312)"/>
<path d="M0 0 C0.99 0 1.98 0 3 0 C5 3 5 3 5 6 C4.34 6 3.68 6 3 6 C3 7.65 3 9.3 3 11 C2.34 11 1.68 11 1 11 C-0.98362069 8.08291076 -0.9876191 6.87619096 -0.625 3.25 C-0.41875 2.1775 -0.2125 1.105 0 0 Z " fill="#6F7DEB" transform="translate(140,219)"/>
<path d="M0 0 C4.29 0 8.58 0 13 0 C12.67 1.32 12.34 2.64 12 4 C12.66 4 13.32 4 14 4 C14 4.66 14 5.32 14 6 C12.68 6 11.36 6 10 6 C10 5.34 10 4.68 10 4 C9.34 4 8.68 4 8 4 C8 3.34 8 2.68 8 2 C5.36 2 2.72 2 0 2 C0 1.34 0 0.68 0 0 Z " fill="#707284" transform="translate(157,284)"/>
<path d="M0 0 C0.66 0.33 1.32 0.66 2 1 C1.91621094 1.71285156 1.83242187 2.42570312 1.74609375 3.16015625 C1.15810839 8.69019573 0.90805694 13.54028471 2 19 C1.34 19 0.68 19 0 19 C0 18.01 0 17.02 0 16 C-0.66 16 -1.32 16 -2 16 C-2 12.04 -2 8.08 -2 4 C-1.34 4 -0.68 4 0 4 C0 2.68 0 1.36 0 0 Z " fill="#6076F6" transform="translate(84,459)"/>
<path d="M0 0 C1.32 0 2.64 0 4 0 C4 0.66 4 1.32 4 2 C4.66 2 5.32 2 6 2 C6 2.66 6 3.32 6 4 C6.66 4 7.32 4 8 4 C8 4.66 8 5.32 8 6 C8.66 6.33 9.32 6.66 10 7 C8.02 7.33 6.04 7.66 4 8 C4 7.34 4 6.68 4 6 C3.34 6 2.68 6 2 6 C2 5.34 2 4.68 2 4 C1.34 4 0.68 4 0 4 C0 2.68 0 1.36 0 0 Z " fill="#60616A" transform="translate(306,219)"/>
<path d="M0 0 C0.66 0 1.32 0 2 0 C1.96519531 1.19238281 1.93039063 2.38476562 1.89453125 3.61328125 C1.86639247 5.17967342 1.8390924 6.74608081 1.8125 8.3125 C1.78736328 9.09818359 1.76222656 9.88386719 1.73632812 10.69335938 C1.72666016 11.45068359 1.71699219 12.20800781 1.70703125 12.98828125 C1.6913208 13.68477783 1.67561035 14.38127441 1.65942383 15.09887695 C2.09792932 17.54664919 3.23222517 18.32431829 5 20 C4.6875 22.1875 4.6875 22.1875 4 24 C3.34 24 2.68 24 2 24 C2 22.68 2 21.36 2 20 C1.34 20 0.68 20 0 20 C0 13.4 0 6.8 0 0 Z " fill="#4961F0" transform="translate(32,38)"/>
<path d="M0 0 C0.33 0.66 0.66 1.32 1 2 C1.66 2 2.32 2 3 2 C3 2.66 3 3.32 3 4 C1.36209288 5.04644066 -0.31008021 6.0398183 -2 7 C-3.34631825 7.98244845 -4.68441297 8.97676564 -6 10 C-6.99 9.34 -7.98 8.68 -9 8 C-7.22113307 4.44226614 -3.63795695 3.21265232 0 2 C0 1.34 0 0.68 0 0 Z " fill="#6C6C77" transform="translate(275,239)"/>
<path d="M0 0 C0.33 0 0.66 0 1 0 C2.10643764 5.83394389 2.27137992 8.76579213 -1 14 C-1.66 13.67 -2.32 13.34 -3 13 C-2.67 12.01 -2.34 11.02 -2 10 C-2.66 10 -3.32 10 -4 10 C-3.34 8.02 -2.68 6.04 -2 4 C-1.34 4 -0.68 4 0 4 C0 2.68 0 1.36 0 0 Z " fill="#75757E" transform="translate(370,209)"/>
<path d="M0 0 C1.32 0 2.64 0 4 0 C4 0.66 4 1.32 4 2 C9.28 2 14.56 2 20 2 C20 2.33 20 2.66 20 3 C18.58847656 3.09087891 18.58847656 3.09087891 17.1484375 3.18359375 C15.90320313 3.26738281 14.65796875 3.35117188 13.375 3.4375 C12.14523437 3.51871094 10.91546875 3.59992188 9.6484375 3.68359375 C6.38467612 3.96663944 3.22056141 4.41038953 0 5 C-0.66 4.01 -1.32 3.02 -2 2 C-1.34 2 -0.68 2 0 2 C0 1.34 0 0.68 0 0 Z " fill="#75747E" transform="translate(316,150)"/>
<path d="M0 0 C0.66 0 1.32 0 2 0 C2 1.98 2 3.96 2 6 C2.99 6 3.98 6 5 6 C4.67 7.98 4.34 9.96 4 12 C3.34 12 2.68 12 2 12 C2 10.68 2 9.36 2 8 C1.34 8 0.68 8 0 8 C0 7.34 0 6.68 0 6 C-0.66 6 -1.32 6 -2 6 C-2 5.34 -2 4.68 -2 4 C-1.34 4 -0.68 4 0 4 C0 2.68 0 1.36 0 0 Z " fill="#A4A8CE" transform="translate(177,304)"/>
<path d="M0 0 C0.66 0 1.32 0 2 0 C2.66 1.32 3.32 2.64 4 4 C3.34 4 2.68 4 2 4 C2 4.66 2 5.32 2 6 C-1.3 6 -4.6 6 -8 6 C-8 5.34 -8 4.68 -8 4 C-6.02 4 -4.04 4 -2 4 C-2 3.34 -2 2.68 -2 2 C-1.34 2 -0.68 2 0 2 C0 1.34 0 0.68 0 0 Z " fill="#35354A" transform="translate(328,308)"/>
<path d="M0 0 C4.62 0 9.24 0 14 0 C14 0.66 14 1.32 14 2 C14.66 2 15.32 2 16 2 C16 2.66 16 3.32 16 4 C10.72 3.34 5.44 2.68 0 2 C0 1.34 0 0.68 0 0 Z " fill="#C9CDEC" transform="translate(151,286)"/>
<path d="M0 0 C0.33 0 0.66 0 1 0 C1.125 7.625 1.125 7.625 0 11 C-0.22451458 13.22574335 -0.40782878 15.45581519 -0.5625 17.6875 C-0.64628906 18.86699219 -0.73007812 20.04648438 -0.81640625 21.26171875 C-0.87699219 22.16535156 -0.93757813 23.06898438 -1 24 C-1.33 24 -1.66 24 -2 24 C-2 17.4 -2 10.8 -2 4 C-1.34 4 -0.68 4 0 4 C0 2.68 0 1.36 0 0 Z " fill="#37373C" transform="translate(296,173)"/>
<path d="M0 0 C1.5625 1.625 1.5625 1.625 3 4 C2.6875 7.25 2.6875 7.25 2 10 C0.02 10 -1.96 10 -4 10 C-4 9.34 -4 8.68 -4 8 C-2.68 8 -1.36 8 0 8 C0 6.68 0 5.36 0 4 C-0.66 4 -1.32 4 -2 4 C-2 3.34 -2 2.68 -2 2 C-1.34 2 -0.68 2 0 2 C0 1.34 0 0.68 0 0 Z " fill="#9494A1" transform="translate(155,302)"/>
<path d="M0 0 C0 0.66 0 1.32 0 2 C-1.98 2 -3.96 2 -6 2 C-6 2.66 -6 3.32 -6 4 C-7.32 4 -8.64 4 -10 4 C-10 4.66 -10 5.32 -10 6 C-11.32 6 -12.64 6 -14 6 C-14 5.34 -14 4.68 -14 4 C-9.02495953 0.75099398 -6.11774896 -0.49940808 0 0 Z " fill="#5668F2" transform="translate(364,304)"/>
<path d="M0 0 C1.32 0.33 2.64 0.66 4 1 C3.67 3.64 3.34 6.28 3 9 C2.01 9.33 1.02 9.66 0 10 C0 8.68 0 7.36 0 6 C-0.66 6 -1.32 6 -2 6 C-2 5.01 -2 4.02 -2 3 C-0.68 2.67 0.64 2.34 2 2 C1.34 2 0.68 2 0 2 C0 1.34 0 0.68 0 0 Z " fill="#BFBFCD" transform="translate(219,248)"/>
<path d="M0 0 C3.3 0 6.6 0 10 0 C10 0.66 10 1.32 10 2 C6.5980513 4.09350689 3.94727588 4.17942163 0 4 C0 2.68 0 1.36 0 0 Z " fill="#E5E7FC" transform="translate(155,336)"/>
<path d="M0 0 C1.65 0 3.3 0 5 0 C5 1.65 5 3.3 5 5 C5.66 5 6.32 5 7 5 C7 6.98 7 8.96 7 11 C6.34 11 5.68 11 5 11 C4.34 8.36 3.68 5.72 3 3 C2.34 3 1.68 3 1 3 C0.67 3.66 0.34 4.32 0 5 C0 3.35 0 1.7 0 0 Z " fill="#EFDDCB" transform="translate(353,257)"/>
<path d="M0 0 C1.32 0 2.64 0 4 0 C3.49396008 2.16874252 3.00016187 3.99967627 2 6 C0.68 6 -0.64 6 -2 6 C-2 6.66 -2 7.32 -2 8 C-3.32 7.67 -4.64 7.34 -6 7 C-5.01 7 -4.02 7 -3 7 C-2.67 5.35 -2.34 3.7 -2 2 C-1.34 2 -0.68 2 0 2 C0 1.34 0 0.68 0 0 Z " fill="#4D4D55" transform="translate(364,219)"/>
<path d="M0 0 C3.3 0 6.6 0 10 0 C9.67 1.32 9.34 2.64 9 4 C8.01 3.34 7.02 2.68 6 2 C4.34450469 1.61500109 2.6777567 1.27206865 1 1 C0.83197949 2.45817797 0.66562857 3.9165484 0.5 5.375 C0.4071875 6.18710938 0.314375 6.99921875 0.21875 7.8359375 C-0.03352351 9.96912825 -0.03352351 9.96912825 0 12 C-0.66 12 -1.32 12 -2 12 C-2 8.7 -2 5.4 -2 2 C-1.34 2 -0.68 2 0 2 C0 1.34 0 0.68 0 0 Z " fill="#5C6FE8" transform="translate(481,102)"/>
<path d="M0 0 C0.66 0 1.32 0 2 0 C2 3.3 2 6.6 2 10 C0.68 10 -0.64 10 -2 10 C-2 8.02 -2 6.04 -2 4 C-1.34 4 -0.68 4 0 4 C0 2.68 0 1.36 0 0 Z " fill="#DADFF7" transform="translate(177,312)"/>
<path d="M0 0 C-0.99 0.33 -1.98 0.66 -3 1 C-3 1.66 -3 2.32 -3 3 C-4.32 3.33 -5.64 3.66 -7 4 C-7 4.66 -7 5.32 -7 6 C-8.32 6 -9.64 6 -11 6 C-11 5.34 -11 4.68 -11 4 C-10.34 4 -9.68 4 -9 4 C-9 3.01 -9 2.02 -9 1 C-6.04335481 -0.4783226 -3.25770263 -0.06032783 0 0 Z " fill="#4C4C54" transform="translate(319,153)"/>
<path d="M0 0 C0.66 0 1.32 0 2 0 C2 2.31 2 4.62 2 7 C1.34 7 0.68 7 0 7 C0 7.66 0 8.32 0 9 C-0.66 9 -1.32 9 -2 9 C-2 9.66 -2 10.32 -2 11 C-2.66 11 -3.32 11 -4 11 C-4 9.68 -4 8.36 -4 7 C-3.34 7 -2.68 7 -2 7 C-2 6.34 -2 5.68 -2 5 C-1.34 5 -0.68 5 0 5 C0 3.35 0 1.7 0 0 Z " fill="#7B7B94" transform="translate(177,323)"/>
<path d="M0 0 C0.99 0 1.98 0 3 0 C3 1.98 3 3.96 3 6 C4.32 6 5.64 6 7 6 C7 6.66 7 7.32 7 8 C5.02 8 3.04 8 1 8 C1 6.68 1 5.36 1 4 C0.34 4 -0.32 4 -1 4 C-0.67 2.68 -0.34 1.36 0 0 Z " fill="#A4A9CB" transform="translate(166,328)"/>
<path d="M0 0 C0.33 0.66 0.66 1.32 1 2 C2.97888961 2.72693904 4.97954558 3.39816251 7 4 C7 5.32 7 6.64 7 8 C6.34 8 5.68 8 5 8 C5 7.34 5 6.68 5 6 C2.36 5.34 -0.28 4.68 -3 4 C-3 3.34 -3 2.68 -3 2 C-2.01 2 -1.02 2 0 2 C0 1.34 0 0.68 0 0 Z " fill="#828AC3" transform="translate(166,290)"/>
<path d="M0 0 C2.38564077 0.57584432 4.66682784 1.22227595 7 2 C7 3.98 7 5.96 7 8 C6.34 8 5.68 8 5 8 C5 8.66 5 9.32 5 10 C4.34 10 3.68 10 3 10 C3.0928125 8.3603125 3.0928125 8.3603125 3.1875 6.6875 C3.35597914 3.07873917 3.35597914 3.07873917 1.5 1.0625 C1.005 0.711875 0.51 0.36125 0 0 Z " fill="#4159E9" transform="translate(486,104)"/>
<path d="M0 0 C0.33 0.99 0.66 1.98 1 3 C2.32 3 3.64 3 5 3 C5 3.99 5 4.98 5 6 C3.68 6 2.36 6 1 6 C1 6.66 1 7.32 1 8 C0.01 7.67 -0.98 7.34 -2 7 C-1.125 2.25 -1.125 2.25 0 0 Z " fill="#5063F4" transform="translate(186,324)"/>
<path d="M0 0 C1.32 0 2.64 0 4 0 C4 0.66 4 1.32 4 2 C3.01 2 2.02 2 1 2 C1.99 3.485 1.99 3.485 3 5 C3 5.99 3 6.98 3 8 C2.01 8 1.02 8 0 8 C0 7.34 0 6.68 0 6 C-0.66 6 -1.32 6 -2 6 C-2 4.68 -2 3.36 -2 2 C-1.34 2 -0.68 2 0 2 C0 1.34 0 0.68 0 0 Z " fill="#696C76" transform="translate(318,189)"/>
<path d="M0 0 C0.99 0.66 1.98 1.32 3 2 C3.1875 4.625 3.1875 4.625 3 7 C1.35 7.33 -0.3 7.66 -2 8 C-1.125 1.125 -1.125 1.125 0 0 Z " fill="#2E50FA" transform="translate(189,319)"/>
<path d="M0 0 C1.32 0 2.64 0 4 0 C4 1.32 4 2.64 4 4 C4.66 4 5.32 4 6 4 C6 5.32 6 6.64 6 8 C4.68 8 3.36 8 2 8 C2 6.02 2 4.04 2 2 C1.34 2 0.68 2 0 2 C0 1.34 0 0.68 0 0 Z " fill="#D7D9EC" transform="translate(179,300)"/>
<path d="M0 0 C2.64 0 5.28 0 8 0 C8 0.66 8 1.32 8 2 C8.66 2.33 9.32 2.66 10 3 C2.25 4.125 2.25 4.125 0 3 C0 2.01 0 1.02 0 0 Z " fill="#97A2DF" transform="translate(151,290)"/>
<path d="M0 0 C1.32 0 2.64 0 4 0 C4 0.66 4 1.32 4 2 C4.66 2 5.32 2 6 2 C6 3.32 6 4.64 6 6 C4.68 6 3.36 6 2 6 C2 5.34 2 4.68 2 4 C1.34 4 0.68 4 0 4 C0 2.68 0 1.36 0 0 Z " fill="#BBBAD0" transform="translate(171,286)"/>
<path d="M0 0 C1.98 0 3.96 0 6 0 C6 0.66 6 1.32 6 2 C6.66 2 7.32 2 8 2 C8 2.66 8 3.32 8 4 C7.34 4 6.68 4 6 4 C6 4.66 6 5.32 6 6 C5.34 6 4.68 6 4 6 C4 5.34 4 4.68 4 4 C3.34 4 2.68 4 2 4 C2 3.34 2 2.68 2 2 C1.34 2 0.68 2 0 2 C0 1.34 0 0.68 0 0 Z " fill="#7B7D88" transform="translate(207,237)"/>
<path d="M0 0 C1.65 0 3.3 0 5 0 C5 2 5 2 3.625 3.625 C2 5 2 5 0 5 C0 5.66 0 6.32 0 7 C-1.32 6.34 -2.64 5.68 -4 5 C-3.34 4.67 -2.68 4.34 -2 4 C-2 3.34 -2 2.68 -2 2 C-1.34 2 -0.68 2 0 2 C0 1.34 0 0.68 0 0 Z " fill="#6F717E" transform="translate(292,225)"/>
<path d="M0 0 C0.66 0 1.32 0 2 0 C4 2 4 2 4 6 C3.34 6 2.68 6 2 6 C1.67 6.99 1.34 7.98 1 9 C0.01 8.67 -0.98 8.34 -2 8 C-1.34 5.36 -0.68 2.72 0 0 Z " fill="#72737A" transform="translate(296,169)"/>
<path d="M0 0 C0.33 0.66 0.66 1.32 1 2 C2.32 1.67 3.64 1.34 5 1 C5 1.66 5 2.32 5 3 C4.34 3 3.68 3 3 3 C3 3.66 3 4.32 3 5 C1.68 5 0.36 5 -1 5 C-1 4.34 -1 3.68 -1 3 C-2.32 3 -3.64 3 -5 3 C-5 2.34 -5 1.68 -5 1 C-3.35 0.67 -1.7 0.34 0 0 Z " fill="#CED1E2" transform="translate(323,307)"/>
<path d="M0 0 C0.66 0 1.32 0 2 0 C2 0.66 2 1.32 2 2 C2.66 2 3.32 2 4 2 C4 2.66 4 3.32 4 4 C4.66 4 5.32 4 6 4 C6 4.66 6 5.32 6 6 C6.66 6 7.32 6 8 6 C8 6.66 8 7.32 8 8 C6.68 8 5.36 8 4 8 C4 7.34 4 6.68 4 6 C3.34 6 2.68 6 2 6 C2 5.34 2 4.68 2 4 C1.34 4 0.68 4 0 4 C0 2.68 0 1.36 0 0 Z " fill="#5A5A65" transform="translate(189,219)"/>
<path d="M0 0 C0.33 1.32 0.66 2.64 1 4 C0.34 4 -0.32 4 -1 4 C-1 5.32 -1 6.64 -1 8 C-1.66 8 -2.32 8 -3 8 C-3 9.32 -3 10.64 -3 12 C-3.99 12 -4.98 12 -6 12 C-6 11.01 -6 10.02 -6 9 C-5.34 9 -4.68 9 -4 9 C-4 8.01 -4 7.02 -4 6 C-3.34 6 -2.68 6 -2 6 C-2 4.68 -2 3.36 -2 2 C-1.34 2 -0.68 2 0 2 C0 1.34 0 0.68 0 0 Z " fill="#A1A1AD" transform="translate(366,163)"/>
<path d="M0 0 C0 0.66 0 1.32 0 2 C-0.66 2 -1.32 2 -2 2 C-2 2.66 -2 3.32 -2 4 C-1.34 4 -0.68 4 0 4 C0 4.66 0 5.32 0 6 C-0.66 6 -1.32 6 -2 6 C-2 6.66 -2 7.32 -2 8 C-2.66 8 -3.32 8 -4 8 C-4 7.34 -4 6.68 -4 6 C-4.66 6 -5.32 6 -6 6 C-6 5.34 -6 4.68 -6 4 C-5.34 4 -4.68 4 -4 4 C-4 3.01 -4 2.02 -4 1 C-2 0 -2 0 0 0 Z " fill="#74757E" transform="translate(310,155)"/>
<path d="M0 0 C1.32 0 2.64 0 4 0 C4 0.66 4 1.32 4 2 C3.34 2 2.68 2 2 2 C2 3.98 2 5.96 2 8 C0.68 8 -0.64 8 -2 8 C-2 7.34 -2 6.68 -2 6 C-1.34 6 -0.68 6 0 6 C0 4.02 0 2.04 0 0 Z " fill="#9496C2" transform="translate(171,320)"/>
<path d="M0 0 C0.66 0 1.32 0 2 0 C3.31223496 3.93670488 2.24296256 6.12488144 1 10 C0.34 10 -0.32 10 -1 10 C-2.23076923 4.58461538 -2.23076923 4.58461538 -1.0625 1.625 C-0.5365625 0.820625 -0.5365625 0.820625 0 0 Z " fill="#DDDFF5" transform="translate(137,294)"/>
<path d="M0 0 C1.32 0 2.64 0 4 0 C4 0.66 4 1.32 4 2 C6.31 2 8.62 2 11 2 C11 2.66 11 3.32 11 4 C7.44706507 5.14947895 6.20023331 5.0868937 2.6875 3.5625 C1.800625 3.046875 0.91375 2.53125 0 2 C0 1.34 0 0.68 0 0 Z " fill="#565862" transform="translate(239,260)"/>
<path d="M0 0 C0.66 0 1.32 0 2 0 C2 0.66 2 1.32 2 2 C2.66 2 3.32 2 4 2 C4 2.99 4 3.98 4 5 C4.66 5 5.32 5 6 5 C6 6.32 6 7.64 6 9 C5.34 9 4.68 9 4 9 C4 8.34 4 7.68 4 7 C3.34 7 2.68 7 2 7 C2 5.68 2 4.36 2 3 C1.34 3 0.68 3 0 3 C0 2.01 0 1.02 0 0 Z " fill="#4B4E57" transform="translate(286,260)"/>
<path d="M0 0 C0.99 0.33 1.98 0.66 3 1 C2.34 1 1.68 1 1 1 C0.67 2.65 0.34 4.3 0 6 C-1.98 6.33 -3.96 6.66 -6 7 C-5.34 6.67 -4.68 6.34 -4 6 C-4 5.01 -4 4.02 -4 3 C-3.34 3 -2.68 3 -2 3 C-2 2.34 -2 1.68 -2 1 C-1.34 0.67 -0.68 0.34 0 0 Z " fill="#53535D" transform="translate(266,248)"/>
<path d="M0 0 C1.65 0 3.3 0 5 0 C5 0.66 5 1.32 5 2 C4.01 2 3.02 2 2 2 C2 3.093125 2 4.18625 2 5.3125 C2 7.54166667 2 9.77083333 2 12 C0 10 0 10 -0.1953125 7.6171875 C-0.17210937 6.71226562 -0.14890625 5.80734375 -0.125 4.875 C-0.10695312 3.96492187 -0.08890625 3.05484375 -0.0703125 2.1171875 C-0.04710937 1.41851562 -0.02390625 0.71984375 0 0 Z " fill="#BAC1FB" transform="translate(138,217)"/>
<path d="M0 0 C0 0.66 0 1.32 0 2 C-0.66 2 -1.32 2 -2 2 C-2 3.32 -2 4.64 -2 6 C-3.32 6.33 -4.64 6.66 -6 7 C-6.33 6.01 -6.66 5.02 -7 4 C-3.375 0 -3.375 0 0 0 Z " fill="#2E2F32" transform="translate(344,199)"/>
<path d="M0 0 C1.65 0 3.3 0 5 0 C4.49396008 2.16874252 4.00016187 3.99967627 3 6 C1.68 5.34 0.36 4.68 -1 4 C-0.67 2.68 -0.34 1.36 0 0 Z " fill="#333339" transform="translate(367,153)"/>
<path d="M0 0 C1.32 0 2.64 0 4 0 C2.71480435 2.86697492 1.42870746 4.97607712 -1 7 C-1.66 7 -2.32 7 -3 7 C-2.67 5.35 -2.34 3.7 -2 2 C-1.34 2 -0.68 2 0 2 C0 1.34 0 0.68 0 0 Z " fill="#5364F4" transform="translate(88,455)"/>
<path d="M0 0 C1.65 0 3.3 0 5 0 C5.66 1.32 6.32 2.64 7 4 C6.34 4.66 5.68 5.32 5 6 C4.34 6 3.68 6 3 6 C3 4.68 3 3.36 3 2 C2.01 2 1.02 2 0 2 C0 1.34 0 0.68 0 0 Z " fill="#CACBEA" transform="translate(151,298)"/>
<path d="M0 0 C0 0.66 0 1.32 0 2 C2.97 2.495 2.97 2.495 6 3 C3 4 3 4 0 3 C0 3.66 0 4.32 0 5 C-0.66 5 -1.32 5 -2 5 C-2 4.01 -2 3.02 -2 2 C-3.98 2 -5.96 2 -8 2 C-8 1.67 -8 1.34 -8 1 C-2.25 0 -2.25 0 0 0 Z " fill="#B1BCF9" transform="translate(163,292)"/>
<path d="M0 0 C0.66 1.32 1.32 2.64 2 4 C1.34 4 0.68 4 0 4 C0 4.66 0 5.32 0 6 C-0.66 6 -1.32 6 -2 6 C-2 6.66 -2 7.32 -2 8 C-2.66 8 -3.32 8 -4 8 C-4 7.01 -4 6.02 -4 5 C-3.34 5 -2.68 5 -2 5 C-2.33 3.68 -2.66 2.36 -3 1 C-2.01 0.67 -1.02 0.34 0 0 Z " fill="#556AF7" transform="translate(76,60)"/>
<path d="M0 0 C1.51400391 0.01740234 1.51400391 0.01740234 3.05859375 0.03515625 C4.07050781 0.04417969 5.08242187 0.05320312 6.125 0.0625 C7.29869141 0.07990234 7.29869141 0.07990234 8.49609375 0.09765625 C8.16609375 0.75765625 7.83609375 1.41765625 7.49609375 2.09765625 C1.45333841 3.46582727 1.45333841 3.46582727 -1.94140625 2.16015625 C-2.45703125 1.80953125 -2.97265625 1.45890625 -3.50390625 1.09765625 C-2.50390625 0.09765625 -2.50390625 0.09765625 0 0 Z " fill="#DBE0F8" transform="translate(229.50390625,16.90234375)"/>
<path d="M0 0 C1.32 0 2.64 0 4 0 C4 0.66 4 1.32 4 2 C3.34 2 2.68 2 2 2 C2 2.99 2 3.98 2 5 C2.66 5.33 3.32 5.66 4 6 C2.68 6 1.36 6 0 6 C0 5.34 0 4.68 0 4 C-0.66 4 -1.32 4 -2 4 C-2 3.34 -2 2.68 -2 2 C-1.34 2 -0.68 2 0 2 C0 1.34 0 0.68 0 0 Z " fill="#838595" transform="translate(167,336)"/>
<path d="M0 0 C1.32 0 2.64 0 4 0 C4 0.66 4 1.32 4 2 C5.32 2 6.64 2 8 2 C8 3.32 8 4.64 8 6 C7.34 6 6.68 6 6 6 C6 5.34 6 4.68 6 4 C5.01 4 4.02 4 3 4 C3 3.34 3 2.68 3 2 C2.01 2 1.02 2 0 2 C0 1.34 0 0.68 0 0 Z " fill="#A1A3B9" transform="translate(139,334)"/>
<path d="M0 0 C1.98 0 3.96 0 6 0 C6 0.66 6 1.32 6 2 C4.68 2 3.36 2 2 2 C2 3.32 2 4.64 2 6 C1.34 6 0.68 6 0 6 C0 5.34 0 4.68 0 4 C-0.66 3.67 -1.32 3.34 -2 3 C-1.34 3 -0.68 3 0 3 C0 2.01 0 1.02 0 0 Z " fill="#C4C7E3" transform="translate(153,334)"/>
<path d="M0 0 C0.66 0 1.32 0 2 0 C2 0.66 2 1.32 2 2 C2.66 2 3.32 2 4 2 C4 2.66 4 3.32 4 4 C4.66 4 5.32 4 6 4 C6 4.99 6 5.98 6 7 C4.68 6.67 3.36 6.34 2 6 C2 5.34 2 4.68 2 4 C1.34 4 0.68 4 0 4 C0 2.68 0 1.36 0 0 Z " fill="#50505B" transform="translate(306,290)"/>
<path d="M0 0 C0.99 0 1.98 0 3 0 C3 0.66 3 1.32 3 2 C3.66 2 4.32 2 5 2 C5 3.32 5 4.64 5 6 C4.34 6 3.68 6 3 6 C3 5.34 3 4.68 3 4 C2.01 4 1.02 4 0 4 C-0.33 3.01 -0.66 2.02 -1 1 C-0.67 0.67 -0.34 0.34 0 0 Z " fill="#B2B4C2" transform="translate(162,338)"/>
<path d="M0 0 C1.65 0 3.3 0 5 0 C4.67 0.66 4.34 1.32 4 2 C3.34 2 2.68 2 2 2 C2 3.32 2 4.64 2 6 C1.01 6 0.02 6 -1 6 C-0.67 4.02 -0.34 2.04 0 0 Z " fill="#D6DAFD" transform="translate(155,326)"/>
<path d="M0 0 C0 0.66 0 1.32 0 2 C-0.99 2 -1.98 2 -3 2 C-3 2.66 -3 3.32 -3 4 C-4.65 4 -6.3 4 -8 4 C-8 3.34 -8 2.68 -8 2 C-4.77208445 -0.1519437 -3.71599191 -0.20086443 0 0 Z " fill="#A9ADF0" transform="translate(165,326)"/>
<path d="M0 0 C0.66 0 1.32 0 2 0 C2 1.65 2 3.3 2 5 C1.34 5 0.68 5 0 5 C0 5.99 0 6.98 0 8 C-0.66 7.67 -1.32 7.34 -2 7 C-2 5.35 -2 3.7 -2 2 C-1.34 2 -0.68 2 0 2 C0 1.34 0 0.68 0 0 Z " fill="#B8BDED" transform="translate(141,290)"/>
<path d="M0 0 C1.32 0 2.64 0 4 0 C4 1.65 4 3.3 4 5 C3.01 5.495 3.01 5.495 2 6 C1.34 5.67 0.68 5.34 0 5 C0 3.35 0 1.7 0 0 Z " fill="#4F4F5A" transform="translate(328,239)"/>
<path d="M0 0 C1.32 0 2.64 0 4 0 C4 0.66 4 1.32 4 2 C4.66 2 5.32 2 6 2 C6.33 3.32 6.66 4.64 7 6 C6.01 6 5.02 6 4 6 C4 5.34 4 4.68 4 4 C3.34 4 2.68 4 2 4 C2 3.34 2 2.68 2 2 C1.34 2 0.68 2 0 2 C0 1.34 0 0.68 0 0 Z " fill="#4A4A55" transform="translate(183,215)"/>
<path d="M0 0 C0.66 0 1.32 0 2 0 C1.37240135 2.92879371 0.41377341 5.36095629 -1 8 C-1.99 8 -2.98 8 -4 8 C-4 7.34 -4 6.68 -4 6 C-3.34 6 -2.68 6 -2 6 C-2 4.68 -2 3.36 -2 2 C-1.34 2 -0.68 2 0 2 C0 1.34 0 0.68 0 0 Z " fill="#C5C6D2" transform="translate(356,181)"/>
<path d="M0 0 C0.99 0 1.98 0 3 0 C3.33 1.98 3.66 3.96 4 6 C3.01 6 2.02 6 1 6 C1 5.34 1 4.68 1 4 C0.34 4 -0.32 4 -1 4 C-0.67 2.68 -0.34 1.36 0 0 Z " fill="#D7D8EC" transform="translate(138,328)"/>
<path d="M0 0 C0.66 0 1.32 0 2 0 C2 0.66 2 1.32 2 2 C3.32 2 4.64 2 6 2 C6 3.32 6 4.64 6 6 C5.34 6 4.68 6 4 6 C4 5.34 4 4.68 4 4 C2.68 4 1.36 4 0 4 C0 2.68 0 1.36 0 0 Z " fill="#B3B3C4" transform="translate(141,328)"/>
<path d="M0 0 C0.66 0.33 1.32 0.66 2 1 C0.35 2.98 -1.3 4.96 -3 7 C-3.99 6.67 -4.98 6.34 -6 6 C-6 5.34 -6 4.68 -6 4 C-5.34 4 -4.68 4 -4 4 C-4 3.34 -4 2.68 -4 2 C-2.68 2 -1.36 2 0 2 C0 1.34 0 0.68 0 0 Z " fill="#BFCDFE" transform="translate(199,322)"/>
<path d="M0 0 C1.32 0 2.64 0 4 0 C4 1.98 4 3.96 4 6 C3.34 6 2.68 6 2 6 C2 5.34 2 4.68 2 4 C1.34 4 0.68 4 0 4 C0 2.68 0 1.36 0 0 Z " fill="#C4C9EB" transform="translate(173,322)"/>
<path d="M0 0 C0.66 0 1.32 0 2 0 C2 1.98 2 3.96 2 6 C2.66 6 3.32 6 4 6 C4 6.66 4 7.32 4 8 C2.68 8 1.36 8 0 8 C0 5.36 0 2.72 0 0 Z " fill="#7F829F" transform="translate(179,302)"/>
<path d="M0 0 C0.99 0 1.98 0 3 0 C3.125 2.875 3.125 2.875 3 6 C2.34 6.66 1.68 7.32 1 8 C-0.35439668 5.29120665 -0.06501451 2.99066732 0 0 Z " fill="#B4B6C8" transform="translate(138,298)"/>
<path d="M0 0 C1.32 0.66 2.64 1.32 4 2 C0.7 3.32 -2.6 4.64 -6 6 C-6 5.34 -6 4.68 -6 4 C-5.34 4 -4.68 4 -4 4 C-4 3.34 -4 2.68 -4 2 C-2.68 2 -1.36 2 0 2 C0 1.34 0 0.68 0 0 Z " fill="#C3CBF4" transform="translate(149,292)"/>
<path d="M0 0 C1.32 0 2.64 0 4 0 C4 1.65 4 3.3 4 5 C2.68 5 1.36 5 0 5 C0 3.35 0 1.7 0 0 Z " fill="#E5DBC2" transform="translate(364,271)"/>
<path d="M0 0 C5.53846154 -0.36923077 5.53846154 -0.36923077 7.875 1.5 C8.24625 1.995 8.6175 2.49 9 3 C8.67 3.66 8.34 4.32 8 5 C7.34 5 6.68 5 6 5 C6 4.34 6 3.68 6 3 C4.02 2.34 2.04 1.68 0 1 C0 0.67 0 0.34 0 0 Z " fill="#747480" transform="translate(223,251)"/>
<path d="M0 0 C2.97 0.495 2.97 0.495 6 1 C6 1.66 6 2.32 6 3 C6.66 3 7.32 3 8 3 C8 3.66 8 4.32 8 5 C6.68 5 5.36 5 4 5 C4 4.34 4 3.68 4 3 C3.34 3 2.68 3 2 3 C2 2.34 2 1.68 2 1 C1.34 0.67 0.68 0.34 0 0 Z " fill="#4D4D5A" transform="translate(201,232)"/>
<path d="M0 0 C1.32 0 2.64 0 4 0 C4 0.66 4 1.32 4 2 C3.34 2 2.68 2 2 2 C2 3.98 2 5.96 2 8 C1.34 8 0.68 8 0 8 C0 5.36 0 2.72 0 0 Z " fill="#CDCFDD" transform="translate(171,207)"/>
<path d="M0 0 C1.32 0 2.64 0 4 0 C4 0.66 4 1.32 4 2 C4.66 2 5.32 2 6 2 C6 2.66 6 3.32 6 4 C6.66 4 7.32 4 8 4 C8 4.66 8 5.32 8 6 C8.66 6.33 9.32 6.66 10 7 C9.01 7 8.02 7 7 7 C7 6.34 7 5.68 7 5 C6.34 5 5.68 5 5 5 C5 4.34 5 3.68 5 3 C3.68 3 2.36 3 1 3 C0.67 2.01 0.34 1.02 0 0 Z " fill="#5569ED" transform="translate(66,25)"/>
<path d="M0 0 C-1.32 0.33 -2.64 0.66 -4 1 C-4 1.66 -4 2.32 -4 3 C-6.31 3 -8.62 3 -11 3 C-10 1 -10 1 -8.3125 0.375 C-5.51555886 -0.07855802 -2.82858003 -0.06428591 0 0 Z " fill="#3B3C45" transform="translate(350,232)"/>
<path d="M0 0 C1.98 0 3.96 0 6 0 C5.34 1.32 4.68 2.64 4 4 C2.68 4 1.36 4 0 4 C0 2.68 0 1.36 0 0 Z " fill="#4D4C51" transform="translate(360,159)"/>
<path d="M0 0 C1.32 0 2.64 0 4 0 C4 0.66 4 1.32 4 2 C4.66 2 5.32 2 6 2 C6 2.99 6 3.98 6 5 C3.5625 4.1875 3.5625 4.1875 1 3 C0.67 2.01 0.34 1.02 0 0 Z " fill="#6479EE" transform="translate(106,455)"/>
<path d="M0 0 C0.99 0 1.98 0 3 0 C2.67 1.98 2.34 3.96 2 6 C0.68 6 -0.64 6 -2 6 C-2 5.34 -2 4.68 -2 4 C-1.34 4 -0.68 4 0 4 C0 2.68 0 1.36 0 0 Z " fill="#DAE2FC" transform="translate(179,326)"/>
<path d="M0 0 C1.98 0 3.96 0 6 0 C6 0.66 6 1.32 6 2 C5.34 2 4.68 2 4 2 C4 2.66 4 3.32 4 4 C2.68 3.67 1.36 3.34 0 3 C0 2.01 0 1.02 0 0 Z " fill="#C8CBE1" transform="translate(177,294)"/>
<path d="M0 0 C1.98 0 3.96 0 6 0 C6 1.32 6 2.64 6 4 C4.02 3.34 2.04 2.68 0 2 C0 1.34 0 0.68 0 0 Z " fill="#A0A6D3" transform="translate(167,290)"/>
<path d="M0 0 C0.99 0 1.98 0 3 0 C3 2.64 3 5.28 3 8 C0.37613513 4.93882432 0 4.26826873 0 0 Z " fill="#4A4A55" transform="translate(371,177)"/>
<path d="M0 0 C1.98 0 3.96 0 6 0 C6 1.65 6 3.3 6 5 C5.34 5 4.68 5 4 5 C4 4.34 4 3.68 4 3 C3.34 3 2.68 3 2 3 C2 2.34 2 1.68 2 1 C1.34 0.67 0.68 0.34 0 0 Z " fill="#5064F7" transform="translate(40,67)"/>
<path d="M0 0 C0.66 0 1.32 0 2 0 C2 0.66 2 1.32 2 2 C2.66 2.66 3.32 3.32 4 4 C3.34 4 2.68 4 2 4 C2 4.66 2 5.32 2 6 C0.68 6 -0.64 6 -2 6 C-2 5.34 -2 4.68 -2 4 C-1.34 4 -0.68 4 0 4 C0 2.68 0 1.36 0 0 Z " fill="#5F6DC6" transform="translate(181,328)"/>
<path d="M0 0 C0.66 0 1.32 0 2 0 C2 1.32 2 2.64 2 4 C1.34 4 0.68 4 0 4 C0 4.66 0 5.32 0 6 C-0.99 6 -1.98 6 -3 6 C-2 4 -1 2 0 0 Z " fill="#C5C8F2" transform="translate(169,322)"/>
<path d="M0 0 C2.31 0 4.62 0 7 0 C7 0.66 7 1.32 7 2 C5.68 2 4.36 2 3 2 C3 2.66 3 3.32 3 4 C2.34 4 1.68 4 1 4 C0.67 2.68 0.34 1.36 0 0 Z " fill="#5065F7" transform="translate(65,68)"/>
</svg>
